<svg id="svg" version="1.1" xmlns="http://www.w3.org/2000/svg" xmlns:xlink="http://www.w3.org/1999/xlink" width="400" height="400" viewBox="0, 0, 400,400"><g id="svgg"><path id="path0" d="M302.196 12.007 C 302.058 12.230,301.749 12.292,301.511 12.145 C 301.262 11.991,301.191 12.061,301.344 12.309 C 301.700 12.885,300.704 13.151,297.806 13.257 C 296.077 13.320,295.243 13.543,294.806 14.059 C 294.397 14.542,293.519 14.811,292.100 14.887 C 290.410 14.978,290.000 15.137,290.000 15.700 C 290.000 16.283,289.627 16.400,287.763 16.400 C 285.862 16.400,285.494 16.520,285.316 17.200 C 285.160 17.797,284.770 18.000,283.780 18.000 C 282.805 18.000,282.387 18.212,282.200 18.800 C 282.009 19.401,281.595 19.600,280.536 19.600 C 279.462 19.600,279.075 19.791,278.916 20.400 C 278.766 20.974,278.370 21.200,277.516 21.200 C 276.662 21.200,276.266 21.426,276.116 22.000 C 275.968 22.566,275.570 22.800,274.757 22.800 C 274.040 22.800,273.419 23.101,273.107 23.600 C 272.832 24.040,272.291 24.400,271.904 24.400 C 271.460 24.400,271.200 24.704,271.200 25.224 C 271.200 25.677,271.035 25.945,270.834 25.821 C 270.223 25.443,268.400 26.337,268.400 27.014 C 268.400 27.362,268.236 27.546,268.036 27.422 C 267.443 27.056,266.494 27.598,266.277 28.428 C 266.166 28.852,265.788 29.200,265.437 29.200 C 265.087 29.200,264.800 29.470,264.800 29.800 C 264.800 30.133,264.444 30.400,264.000 30.400 C 263.467 30.400,263.200 30.667,263.200 31.200 C 263.200 31.733,262.933 32.000,262.400 32.000 C 261.959 32.000,261.600 32.267,261.600 32.595 C 261.600 32.922,260.970 33.452,260.200 33.774 C 258.863 34.333,258.660 34.643,258.741 36.000 C 258.765 36.403,258.704 36.436,258.555 36.100 C 258.187 35.269,257.702 35.533,257.258 36.805 C 257.027 37.468,256.559 38.117,256.219 38.248 C 255.879 38.379,255.600 38.826,255.600 39.243 C 255.600 39.733,255.318 40.000,254.800 40.000 C 254.267 40.000,254.000 40.267,254.000 40.800 C 254.000 41.333,253.733 41.600,253.200 41.600 C 252.667 41.600,252.400 41.867,252.400 42.400 C 252.400 42.933,252.133 43.200,251.600 43.200 C 251.156 43.200,250.800 43.467,250.800 43.800 C 250.800 44.130,250.440 44.760,250.000 45.200 C 249.560 45.640,249.200 46.339,249.200 46.753 C 249.200 47.170,248.843 47.600,248.400 47.716 C 247.960 47.831,247.600 48.212,247.600 48.563 C 247.600 48.913,247.240 49.560,246.800 50.000 C 246.360 50.440,246.000 51.160,246.000 51.600 C 246.000 52.040,245.749 52.400,245.443 52.400 C 244.798 52.400,244.400 53.252,244.400 54.633 C 244.400 55.222,244.168 55.600,243.805 55.600 C 243.420 55.600,243.119 56.165,242.954 57.200 C 242.799 58.165,242.480 58.800,242.149 58.800 C 241.790 58.800,241.600 59.276,241.600 60.173 C 241.600 61.195,241.395 61.611,240.800 61.800 C 240.129 62.013,240.000 62.405,240.000 64.227 C 240.000 66.133,239.902 66.400,239.200 66.400 C 238.760 66.400,238.421 66.535,238.447 66.700 C 238.763 68.699,238.317 71.172,237.600 71.400 C 236.896 71.623,236.800 72.005,236.800 74.578 C 236.800 76.842,236.647 77.626,236.123 78.051 C 235.547 78.519,235.497 78.517,235.785 78.038 C 236.010 77.665,235.975 77.569,235.679 77.751 C 234.949 78.202,235.013 110.270,235.745 111.002 C 236.053 111.310,236.416 111.450,236.552 111.314 C 236.689 111.178,236.822 112.357,236.850 113.933 C 236.917 117.791,236.921 117.808,237.710 117.744 C 238.284 117.698,238.400 118.047,238.400 119.822 C 238.400 121.480,238.573 122.076,239.177 122.499 C 239.747 122.898,239.978 123.588,240.047 125.098 C 240.099 126.228,240.244 127.142,240.370 127.129 C 241.200 127.043,241.602 127.291,241.615 127.900 C 241.624 128.285,242.209 128.961,242.915 129.401 C 244.024 130.093,245.013 131.523,246.789 135.000 C 250.842 142.938,259.065 152.291,269.048 160.318 C 269.514 160.693,271.152 161.810,272.687 162.800 C 275.133 164.377,275.524 164.799,275.840 166.200 C 276.163 167.638,276.337 167.813,277.545 167.929 C 278.455 168.016,278.953 168.300,279.086 168.807 C 279.224 169.334,279.714 169.593,280.741 169.678 C 281.635 169.753,282.162 169.991,282.102 170.293 C 282.012 170.749,282.481 170.939,284.600 171.308 C 285.040 171.385,285.355 171.662,285.300 171.924 C 285.245 172.186,285.470 172.423,285.800 172.450 C 286.130 172.478,286.760 172.545,287.200 172.600 C 287.640 172.655,288.450 172.722,289.000 172.750 C 289.600 172.780,290.000 173.040,290.000 173.400 C 290.000 173.730,290.315 174.021,290.700 174.046 C 291.085 174.072,291.580 174.134,291.800 174.185 C 292.020 174.236,292.785 174.306,293.500 174.339 C 294.362 174.379,294.800 174.602,294.800 175.000 C 294.800 175.477,295.381 175.600,297.629 175.600 C 300.246 175.600,302.025 176.241,301.332 176.935 C 301.205 177.061,308.054 177.176,316.551 177.191 C 331.673 177.216,332.000 177.200,332.000 176.427 C 332.000 175.600,333.944 174.809,336.000 174.800 C 336.550 174.797,337.469 174.551,338.041 174.252 C 338.614 173.953,339.949 173.579,341.008 173.420 C 342.067 173.261,343.308 172.894,343.767 172.605 C 344.225 172.315,345.230 171.950,346.000 171.793 C 347.417 171.504,348.055 171.238,351.079 169.670 C 352.003 169.192,353.014 168.800,353.325 168.800 C 353.637 168.800,354.350 168.440,354.909 168.000 C 355.469 167.560,356.185 167.200,356.501 167.200 C 356.817 167.200,357.402 166.840,357.800 166.400 C 358.603 165.513,361.133 165.293,361.885 166.045 C 362.419 166.579,363.200 166.181,363.200 165.376 C 363.200 165.059,363.560 164.800,364.000 164.800 C 364.533 164.800,364.800 164.533,364.800 164.000 C 364.800 163.355,365.067 163.200,366.173 163.200 C 367.195 163.200,367.611 162.995,367.800 162.400 C 367.940 161.960,368.402 161.600,368.827 161.600 C 369.333 161.600,369.600 161.324,369.600 160.800 C 369.600 160.267,369.867 160.000,370.400 160.000 C 370.933 160.000,371.200 159.733,371.200 159.200 C 371.200 158.748,371.467 158.400,371.813 158.400 C 372.149 158.400,372.524 158.141,372.646 157.824 C 372.767 157.508,373.393 157.133,374.037 156.992 C 374.680 156.851,375.391 156.390,375.617 155.967 C 375.843 155.545,376.249 155.200,376.519 155.200 C 376.789 155.200,377.195 154.795,377.420 154.300 C 377.645 153.805,378.048 153.445,378.315 153.500 C 378.591 153.557,378.800 153.175,378.800 152.613 C 378.800 151.896,378.966 151.689,379.405 151.857 C 379.854 152.029,379.939 151.907,379.737 151.379 C 379.550 150.892,379.611 150.760,379.932 150.958 C 380.243 151.150,380.400 150.903,380.400 150.224 C 380.400 149.467,380.608 149.200,381.200 149.200 C 381.733 149.200,382.000 148.933,382.000 148.400 C 382.000 147.867,382.267 147.600,382.800 147.600 C 383.333 147.600,383.600 147.333,383.600 146.800 C 383.600 146.267,383.867 146.000,384.400 146.000 C 384.917 146.000,385.200 145.733,385.200 145.247 C 385.200 144.830,385.557 144.400,386.000 144.284 C 386.613 144.124,386.800 143.738,386.800 142.637 C 386.800 141.589,386.972 141.200,387.437 141.200 C 387.788 141.200,388.169 140.840,388.284 140.400 C 388.399 139.960,388.734 139.600,389.029 139.600 C 389.324 139.600,389.682 138.972,389.826 138.200 C 389.977 137.398,390.326 136.800,390.645 136.800 C 390.965 136.800,391.200 136.391,391.200 135.833 C 391.200 134.452,391.598 133.600,392.243 133.600 C 392.626 133.600,392.800 133.101,392.800 132.000 C 392.800 130.667,392.933 130.400,393.600 130.400 C 394.263 130.400,394.400 130.133,394.400 128.847 C 394.400 127.645,394.576 127.247,395.178 127.090 C 395.804 126.926,395.979 126.471,396.078 124.743 C 396.168 123.159,396.357 122.600,396.800 122.600 C 397.250 122.600,397.430 122.024,397.520 120.300 C 397.631 118.171,397.856 117.788,398.900 117.953 C 399.065 117.979,399.200 116.560,399.200 114.800 C 399.200 112.933,399.367 111.600,399.600 111.600 C 400.131 111.600,400.152 77.720,399.622 77.533 C 399.413 77.460,399.207 76.005,399.163 74.300 C 399.093 71.577,398.993 71.200,398.342 71.200 C 397.702 71.200,397.600 70.870,397.600 68.800 C 397.600 66.667,397.511 66.400,396.800 66.400 C 396.121 66.400,396.000 66.133,396.000 64.633 C 396.000 62.486,395.696 61.600,394.957 61.600 C 394.587 61.600,394.400 61.130,394.400 60.200 C 394.400 59.067,394.248 58.800,393.600 58.800 C 392.933 58.800,392.800 58.533,392.800 57.200 C 392.800 56.099,392.626 55.600,392.243 55.600 C 391.598 55.600,391.200 54.748,391.200 53.367 C 391.200 52.809,390.965 52.400,390.645 52.400 C 390.326 52.400,389.976 51.799,389.824 50.989 C 389.679 50.213,389.406 49.673,389.219 49.788 C 389.031 49.904,388.690 49.459,388.460 48.800 C 388.230 48.140,387.770 47.600,387.439 47.600 C 387.067 47.600,386.736 47.064,386.574 46.200 C 386.423 45.398,386.074 44.800,385.755 44.800 C 385.450 44.800,385.200 44.532,385.200 44.203 C 385.200 43.875,384.840 43.382,384.400 43.107 C 383.960 42.832,383.600 42.381,383.600 42.104 C 383.600 41.827,383.240 41.600,382.800 41.600 C 382.267 41.600,382.000 41.333,382.000 40.800 C 382.000 40.267,381.733 40.000,381.200 40.000 C 380.667 40.000,380.400 39.733,380.400 39.200 C 380.400 38.760,380.071 38.071,379.669 37.669 C 379.268 37.268,378.822 36.635,378.680 36.263 C 378.537 35.892,377.966 35.415,377.410 35.204 C 376.855 34.993,376.400 34.715,376.400 34.586 C 376.400 34.458,376.580 34.464,376.800 34.600 C 377.020 34.736,377.200 34.660,377.200 34.431 C 377.200 34.202,376.763 33.906,376.229 33.772 C 375.695 33.637,375.156 33.263,375.032 32.939 C 374.907 32.614,374.624 32.461,374.403 32.598 C 374.181 32.735,374.000 32.657,374.000 32.424 C 374.000 32.191,373.730 32.000,373.400 32.000 C 373.070 32.000,372.800 31.713,372.800 31.363 C 372.800 31.012,372.440 30.631,372.000 30.516 C 371.560 30.401,371.200 30.041,371.200 29.716 C 371.200 29.391,370.840 29.031,370.400 28.916 C 369.960 28.801,369.600 28.452,369.600 28.141 C 369.600 27.830,369.285 27.457,368.900 27.312 C 368.515 27.168,368.020 26.814,367.800 26.526 C 367.580 26.238,366.877 25.960,366.238 25.909 C 365.532 25.852,365.007 25.547,364.898 25.130 C 364.799 24.753,364.332 24.390,363.859 24.322 C 363.387 24.255,363.000 23.930,363.000 23.600 C 363.000 23.195,362.511 22.960,361.500 22.876 C 360.325 22.779,360.000 22.584,360.000 21.976 C 360.000 21.361,359.719 21.200,358.647 21.200 C 357.630 21.200,357.241 21.001,357.084 20.400 C 356.924 19.787,356.538 19.600,355.437 19.600 C 354.128 19.600,353.794 19.308,353.953 18.300 C 353.979 18.135,353.323 18.000,352.496 18.000 C 351.426 18.000,350.849 17.770,350.493 17.200 C 350.102 16.574,349.560 16.400,347.997 16.400 C 346.267 16.400,346.000 16.293,346.000 15.600 C 346.000 14.891,345.733 14.800,343.647 14.800 C 341.699 14.800,341.260 14.673,341.101 14.065 C 340.942 13.455,340.450 13.315,338.214 13.242 C 336.181 13.177,335.313 12.964,334.684 12.378 C 333.726 11.486,302.737 11.132,302.196 12.007 M323.200 59.553 L 329.400 59.800 329.600 71.200 L 329.800 82.600 340.967 82.706 C 348.468 82.778,352.311 82.960,352.673 83.261 C 353.107 83.620,353.192 85.875,353.106 94.754 L 353.000 105.800 341.833 105.906 C 334.491 105.976,330.486 106.163,330.139 106.450 C 329.731 106.789,329.588 109.422,329.506 118.144 L 329.400 129.400 318.286 129.737 C 309.796 129.995,307.035 129.961,306.592 129.593 C 306.116 129.198,305.993 127.106,305.906 117.856 L 305.800 106.600 294.400 106.400 L 283.000 106.200 283.000 94.600 L 283.000 83.000 294.400 82.800 L 305.800 82.600 305.906 71.433 C 305.977 64.011,306.161 60.088,306.455 59.733 C 306.940 59.150,311.772 59.098,323.200 59.553 M150.000 340.689 C 137.388 345.432,140.491 364.415,153.875 364.396 C 164.786 364.380,170.152 350.890,162.145 343.605 C 159.026 340.766,153.391 339.413,150.000 340.689 M268.400 340.743 C 259.377 343.426,256.298 353.957,262.629 360.480 C 271.690 369.817,287.146 359.413,281.838 347.550 C 279.615 342.581,273.181 339.322,268.400 340.743 M158.126 341.664 C 164.114 344.157,166.982 350.953,164.480 356.720 C 161.980 362.482,154.677 365.627,149.800 363.041 C 149.140 362.691,148.404 362.404,148.165 362.402 C 147.319 362.398,144.368 358.972,143.391 356.860 C 139.182 347.770,148.849 337.801,158.126 341.664 M275.800 342.228 C 278.701 343.525,280.154 345.097,281.494 348.386 C 285.931 359.277,271.562 368.700,263.227 360.365 C 260.171 357.310,258.867 351.616,260.533 348.600 C 260.897 347.940,261.196 347.209,261.198 346.976 C 261.201 346.404,265.089 342.400,265.641 342.400 C 265.882 342.400,266.646 342.140,267.340 341.823 C 269.913 340.646,272.543 340.771,275.800 342.228 " stroke="none" fill="#8fd758" fill-rule="evenodd"></path><path id="path1" d="M147.200 317.176 C 147.200 318.159,146.921 318.322,144.425 318.795 C 136.185 320.358,126.800 328.361,122.293 337.668 C 121.015 340.306,120.611 340.800,119.404 341.199 L 118.000 341.662 118.000 352.335 C 118.000 362.574,118.032 363.028,118.800 363.507 C 119.426 363.898,119.600 364.440,119.600 366.003 C 119.600 367.733,119.707 368.000,120.400 368.000 C 121.052 368.000,121.200 368.267,121.200 369.437 C 121.200 370.538,121.387 370.924,122.000 371.084 C 122.574 371.234,122.800 371.630,122.800 372.484 C 122.800 373.338,123.026 373.734,123.600 373.884 C 124.043 374.000,124.400 374.430,124.400 374.847 C 124.400 375.261,124.658 375.600,124.973 375.600 C 125.288 375.600,125.660 375.960,125.800 376.400 C 125.940 376.840,126.312 377.200,126.627 377.200 C 126.942 377.200,127.200 377.560,127.200 378.000 C 127.200 378.533,127.467 378.800,128.000 378.800 C 128.533 378.800,128.800 379.067,128.800 379.600 C 128.800 380.133,129.067 380.400,129.600 380.400 C 130.050 380.400,130.400 380.667,130.400 381.010 C 130.400 381.345,130.825 381.782,131.345 381.979 C 131.865 382.177,132.400 382.623,132.533 382.969 C 132.680 383.352,133.252 383.600,133.987 383.600 C 134.933 383.600,135.200 383.776,135.200 384.400 C 135.200 385.063,135.467 385.200,136.753 385.200 C 137.970 385.200,138.352 385.373,138.516 386.000 C 138.691 386.670,139.062 386.800,140.800 386.800 C 142.538 386.800,142.909 386.930,143.084 387.600 C 143.287 388.375,143.630 388.400,153.884 388.400 C 164.138 388.400,164.482 388.375,164.684 387.600 C 164.861 386.923,165.230 386.800,167.084 386.800 C 168.938 386.800,169.307 386.677,169.484 386.000 C 169.640 385.403,170.030 385.200,171.020 385.200 C 171.995 385.200,172.413 384.988,172.600 384.400 C 172.740 383.960,173.187 383.600,173.594 383.600 C 174.761 383.600,175.600 383.164,175.600 382.557 C 175.600 382.251,175.960 382.000,176.400 382.000 C 176.933 382.000,177.200 381.733,177.200 381.200 C 177.200 380.667,177.467 380.400,178.000 380.400 C 178.533 380.400,178.800 380.133,178.800 379.600 C 178.800 379.067,179.067 378.800,179.600 378.800 C 180.133 378.800,180.400 378.533,180.400 378.000 C 180.400 377.467,180.667 377.200,181.200 377.200 C 181.733 377.200,182.000 376.933,182.000 376.400 C 182.000 375.867,182.267 375.600,182.800 375.600 C 183.333 375.600,183.600 375.333,183.600 374.800 C 183.600 374.360,183.851 374.000,184.157 374.000 C 184.760 374.000,185.200 373.162,185.200 372.014 C 185.200 371.618,185.560 371.199,186.000 371.084 C 186.606 370.925,186.800 370.538,186.800 369.484 C 186.800 368.430,186.994 368.043,187.600 367.884 C 188.280 367.706,188.400 367.338,188.400 365.437 C 188.400 363.792,188.547 363.200,188.957 363.200 C 189.909 363.200,190.000 362.224,190.000 352.000 L 190.000 342.066 188.500 341.333 C 187.276 340.735,186.706 340.012,185.400 337.400 C 182.638 331.877,176.791 324.875,173.843 323.561 C 173.379 323.355,172.010 322.566,170.800 321.808 C 169.590 321.051,168.325 320.424,167.989 320.416 C 167.653 320.407,166.993 320.131,166.523 319.801 C 166.053 319.472,164.528 318.977,163.134 318.701 C 160.994 318.278,160.580 318.060,160.472 317.300 C 160.285 315.985,147.200 315.863,147.200 317.176 M263.600 317.181 C 263.600 317.873,261.720 318.788,260.278 318.798 C 259.156 318.806,253.666 321.652,250.562 323.837 C 246.113 326.967,240.171 334.254,239.001 338.015 C 238.499 339.630,237.275 341.094,236.204 341.363 L 235.200 341.615 235.200 352.311 C 235.200 362.574,235.232 363.028,236.000 363.507 C 236.626 363.898,236.800 364.440,236.800 366.003 C 236.800 367.733,236.907 368.000,237.600 368.000 C 238.252 368.000,238.400 368.267,238.400 369.437 C 238.400 370.538,238.587 370.924,239.200 371.084 C 239.774 371.234,240.000 371.630,240.000 372.484 C 240.000 373.338,240.226 373.734,240.800 373.884 C 241.243 374.000,241.600 374.430,241.600 374.847 C 241.600 375.261,241.849 375.600,242.153 375.600 C 242.458 375.600,242.801 375.960,242.916 376.400 C 243.031 376.840,243.412 377.200,243.763 377.200 C 244.133 377.200,244.400 377.535,244.400 378.000 C 244.400 378.533,244.667 378.800,245.200 378.800 C 245.733 378.800,246.000 379.067,246.000 379.600 C 246.000 380.133,246.267 380.400,246.800 380.400 C 247.252 380.400,247.600 380.667,247.600 381.013 C 247.600 381.349,247.915 381.743,248.300 381.886 C 248.685 382.030,249.235 382.474,249.523 382.874 C 249.824 383.293,250.544 383.600,251.223 383.600 C 252.133 383.600,252.400 383.781,252.400 384.400 C 252.400 385.063,252.667 385.200,253.953 385.200 C 255.170 385.200,255.552 385.373,255.716 386.000 C 255.890 386.666,256.262 386.800,257.936 386.800 C 259.595 386.800,259.990 386.940,260.200 387.600 C 260.446 388.374,260.805 388.400,271.064 388.400 C 281.338 388.400,281.682 388.375,281.884 387.600 C 282.061 386.923,282.430 386.800,284.284 386.800 C 286.138 386.800,286.507 386.677,286.684 386.000 C 286.840 385.403,287.230 385.200,288.220 385.200 C 289.195 385.200,289.613 384.988,289.800 384.400 C 289.940 383.960,290.387 383.600,290.794 383.600 C 291.961 383.600,292.800 383.164,292.800 382.557 C 292.800 382.251,293.160 382.000,293.600 382.000 C 294.133 382.000,294.400 381.733,294.400 381.200 C 294.400 380.667,294.667 380.400,295.200 380.400 C 295.733 380.400,296.000 380.133,296.000 379.600 C 296.000 379.067,296.267 378.800,296.800 378.800 C 297.333 378.800,297.600 378.533,297.600 378.000 C 297.600 377.467,297.867 377.200,298.400 377.200 C 298.933 377.200,299.200 376.933,299.200 376.400 C 299.200 375.867,299.467 375.600,300.000 375.600 C 300.533 375.600,300.800 375.333,300.800 374.800 C 300.800 374.360,301.051 374.000,301.357 374.000 C 301.960 374.000,302.400 373.162,302.400 372.014 C 302.400 371.618,302.760 371.199,303.200 371.084 C 303.813 370.924,304.000 370.538,304.000 369.437 C 304.000 368.475,304.184 368.000,304.557 368.000 C 305.296 368.000,305.600 367.114,305.600 364.967 C 305.600 363.723,305.765 363.200,306.157 363.200 C 307.106 363.200,307.200 362.225,307.200 352.400 C 307.200 342.664,307.101 341.600,306.199 341.600 C 305.505 341.600,303.200 338.935,303.200 338.133 C 303.200 335.054,294.882 325.538,289.400 322.344 C 286.650 320.742,282.518 318.801,281.852 318.798 C 280.135 318.789,278.375 317.909,278.608 317.176 C 278.845 316.427,278.593 316.400,271.227 316.400 C 263.928 316.400,263.600 316.434,263.600 317.181 M158.921 341.337 C 165.016 344.578,167.670 351.280,165.090 356.916 C 159.453 369.230,142.000 365.562,142.000 352.064 C 142.000 343.503,151.576 337.432,158.921 341.337 M276.083 341.626 C 283.493 345.334,285.147 354.827,279.387 360.587 C 273.317 366.656,263.489 364.597,260.093 356.545 C 256.093 347.059,266.862 337.011,276.083 341.626 " stroke="none" fill="#584444" fill-rule="evenodd"></path><path id="path2" d="M306.455 59.733 C 306.161 60.088,305.977 64.011,305.906 71.433 L 305.800 82.600 294.400 82.800 L 283.000 83.000 283.000 94.600 L 283.000 106.200 294.400 106.400 L 305.800 106.600 305.906 117.856 C 305.993 127.106,306.116 129.198,306.592 129.593 C 307.035 129.961,309.796 129.995,318.286 129.737 L 329.400 129.400 329.506 118.144 C 329.588 109.422,329.731 106.789,330.139 106.450 C 330.486 106.163,334.491 105.976,341.833 105.906 L 353.000 105.800 353.106 94.754 C 353.192 85.875,353.107 83.620,352.673 83.261 C 352.311 82.960,348.468 82.778,340.967 82.706 L 329.800 82.600 329.600 71.200 L 329.400 59.800 323.200 59.553 C 311.772 59.098,306.940 59.150,306.455 59.733 M149.338 341.808 C 143.467 344.492,140.795 351.255,143.391 356.860 C 144.368 358.972,147.319 362.398,148.165 362.402 C 148.404 362.404,149.140 362.691,149.800 363.041 C 154.677 365.627,161.980 362.482,164.480 356.720 C 168.521 347.406,158.557 337.593,149.338 341.808 M269.600 341.084 C 269.050 341.173,268.033 341.506,267.340 341.823 C 266.646 342.140,265.882 342.400,265.641 342.400 C 265.089 342.400,261.201 346.404,261.198 346.976 C 261.196 347.209,260.897 347.940,260.533 348.600 C 257.273 354.505,263.584 363.600,270.942 363.600 C 282.859 363.600,286.617 347.065,275.800 342.228 C 273.659 341.270,271.221 340.821,269.600 341.084 " stroke="none" fill="#fbefd7" fill-rule="evenodd"></path><path id="path3" d="M0.000 71.000 L 0.000 83.600 36.400 83.600 L 72.800 83.600 72.850 84.800 C 72.877 85.460,72.945 86.180,73.000 86.400 C 73.055 86.620,73.123 86.980,73.150 87.200 C 73.177 87.420,73.391 87.600,73.624 87.600 C 73.857 87.600,73.919 87.392,73.762 87.138 C 73.601 86.878,73.651 86.784,73.875 86.923 C 74.094 87.058,74.312 88.391,74.359 89.884 C 74.410 91.495,74.690 92.977,75.048 93.526 C 75.390 94.050,75.717 95.673,75.801 97.267 C 75.905 99.223,76.164 100.318,76.650 100.855 C 77.150 101.408,77.360 102.356,77.390 104.196 C 77.413 105.609,77.547 106.880,77.688 107.021 C 77.829 107.163,77.848 107.531,77.730 107.839 C 77.611 108.148,77.699 108.400,77.924 108.400 C 78.149 108.400,78.424 108.175,78.535 107.900 C 78.646 107.625,78.770 108.300,78.811 109.400 C 78.997 114.418,79.026 114.603,79.619 114.467 C 79.939 114.393,80.067 114.467,79.903 114.630 C 79.740 114.793,79.775 115.128,79.979 115.375 C 80.184 115.622,80.380 116.988,80.414 118.412 C 80.488 121.440,80.695 122.400,81.276 122.400 C 81.532 122.400,81.491 122.125,81.171 121.700 C 80.693 121.065,80.705 121.055,81.305 121.600 C 81.806 122.054,81.984 123.004,82.036 125.514 C 82.075 127.336,82.201 128.732,82.317 128.616 C 82.925 128.008,83.601 130.225,83.642 132.965 C 83.684 135.781,83.839 136.181,84.840 136.067 C 84.972 136.052,85.117 137.336,85.162 138.920 C 85.207 140.504,85.415 141.860,85.624 141.934 C 85.834 142.008,85.903 142.233,85.779 142.434 C 85.655 142.635,85.833 142.800,86.176 142.800 C 86.748 142.800,87.156 147.398,86.816 150.000 C 86.760 150.430,86.899 150.385,87.308 149.839 C 87.739 149.264,87.954 149.202,88.190 149.584 C 88.367 149.871,88.288 150.222,88.006 150.396 C 87.678 150.599,87.656 150.753,87.941 150.852 C 88.184 150.935,88.416 152.261,88.471 153.875 C 88.552 156.252,88.693 156.783,89.284 156.938 C 89.898 157.098,90.000 157.589,90.000 160.363 C 90.000 162.683,90.142 163.602,90.500 163.606 C 90.868 163.611,90.857 163.703,90.457 163.956 C 90.079 164.196,90.049 164.383,90.357 164.574 C 90.601 164.724,90.980 164.736,91.200 164.600 C 91.455 164.442,91.600 165.604,91.600 167.800 C 91.600 169.696,91.754 171.152,91.942 171.036 C 92.536 170.669,93.072 172.523,93.006 174.720 C 92.971 175.887,93.093 176.934,93.278 177.048 C 93.462 177.162,93.509 177.423,93.383 177.628 C 93.256 177.832,93.433 178.000,93.776 178.000 C 94.266 178.000,94.411 178.514,94.450 180.400 C 94.478 181.720,94.545 183.160,94.600 183.600 C 94.655 184.040,94.723 184.574,94.750 184.787 C 94.778 185.001,95.038 185.084,95.328 184.972 C 95.840 184.776,96.010 185.871,96.157 190.300 C 96.181 191.015,96.406 191.600,96.657 191.600 C 97.355 191.600,97.600 192.612,97.600 195.489 C 97.600 197.502,97.763 198.245,98.300 198.686 C 98.716 199.026,98.756 199.138,98.400 198.961 C 97.944 198.734,97.964 198.850,98.485 199.447 C 98.951 199.980,99.194 201.026,99.245 202.715 C 99.312 204.938,99.408 205.203,100.160 205.232 C 100.622 205.249,100.775 205.354,100.500 205.465 C 100.225 205.576,100.000 205.932,100.000 206.257 C 100.000 206.582,100.180 206.736,100.400 206.600 C 100.714 206.406,100.963 210.338,100.782 212.622 C 100.773 212.744,101.124 213.149,101.563 213.522 C 102.218 214.078,102.383 214.787,102.481 217.462 C 102.546 219.255,102.755 220.627,102.945 220.510 C 103.587 220.114,103.988 221.390,103.994 223.846 C 103.998 225.656,104.202 226.549,104.778 227.281 C 105.376 228.042,105.586 229.046,105.686 231.635 C 105.799 234.534,105.913 234.992,106.508 234.944 C 107.103 234.897,107.200 235.279,107.200 237.671 C 107.200 240.314,107.711 242.222,108.320 241.852 C 108.474 241.759,108.630 242.427,108.666 243.337 C 108.790 246.463,109.259 249.211,109.629 248.982 C 109.833 248.856,110.026 249.348,110.057 250.076 C 110.140 251.981,110.288 254.523,110.348 255.071 C 110.377 255.331,110.677 255.820,111.015 256.158 C 111.410 256.553,111.684 257.745,111.779 259.487 C 112.011 263.745,111.965 263.475,112.362 262.847 C 112.860 262.061,113.150 263.189,113.250 266.300 C 113.296 267.706,113.513 268.800,113.746 268.800 C 114.016 268.800,114.024 268.936,113.768 269.192 C 113.544 269.416,109.704 269.630,104.788 269.692 C 96.892 269.791,96.204 269.856,96.256 270.500 C 96.307 271.152,94.591 271.491,92.530 271.237 C 92.272 271.205,91.945 271.544,91.803 271.989 C 91.641 272.501,91.199 272.800,90.606 272.800 C 89.250 272.800,88.400 273.202,88.400 273.843 C 88.400 274.149,88.040 274.400,87.600 274.400 C 87.067 274.400,86.800 274.667,86.800 275.200 C 86.800 275.640,86.609 276.000,86.376 276.000 C 86.143 276.000,86.064 275.820,86.200 275.600 C 86.336 275.380,86.156 275.200,85.800 275.200 C 85.444 275.200,85.264 275.380,85.400 275.600 C 85.539 275.825,85.220 276.000,84.670 276.000 C 84.014 276.000,83.621 276.276,83.474 276.840 C 83.352 277.304,83.062 277.562,82.826 277.416 C 82.588 277.269,82.226 277.607,82.009 278.176 C 81.795 278.739,81.326 279.200,80.967 279.200 C 80.578 279.200,80.400 279.422,80.525 279.749 C 80.646 280.065,80.324 280.519,79.768 280.817 C 79.236 281.102,78.800 281.485,78.800 281.668 C 78.800 281.850,78.511 282.000,78.157 282.000 C 77.741 282.000,77.598 282.218,77.753 282.621 C 77.884 282.962,77.826 283.140,77.624 283.015 C 77.197 282.751,76.643 284.222,76.970 284.751 C 77.091 284.948,76.810 285.209,76.344 285.331 C 75.778 285.478,75.576 285.760,75.735 286.176 C 75.880 286.553,75.759 286.800,75.430 286.800 C 74.804 286.800,74.400 287.657,74.400 288.986 C 74.400 289.570,74.108 289.983,73.600 290.116 C 72.983 290.277,72.800 290.662,72.800 291.799 C 72.800 292.653,72.473 293.689,72.024 294.260 C 71.189 295.322,70.706 316.753,71.528 316.244 C 72.038 315.929,72.749 317.550,72.913 319.400 C 73.022 320.637,73.207 320.973,73.727 320.882 C 74.363 320.771,74.647 321.830,74.430 323.500 C 74.394 323.775,74.643 324.000,74.982 324.000 C 75.322 324.000,75.600 324.263,75.600 324.584 C 75.600 324.906,75.935 325.491,76.344 325.884 C 76.753 326.278,77.208 327.102,77.355 327.716 C 77.503 328.330,77.778 328.737,77.966 328.621 C 78.445 328.325,79.326 329.473,79.011 329.982 C 78.863 330.221,79.106 330.400,79.576 330.400 C 80.313 330.400,80.588 330.810,80.447 331.700 C 80.421 331.865,80.760 332.000,81.200 332.000 C 81.916 332.000,82.187 332.416,82.047 333.300 C 82.021 333.465,82.135 333.579,82.300 333.553 C 83.404 333.378,84.000 333.691,84.000 334.443 C 84.000 335.028,84.184 335.215,84.600 335.055 C 84.958 334.918,85.200 335.052,85.200 335.389 C 85.200 335.699,85.408 336.081,85.662 336.238 C 85.948 336.415,86.015 336.348,85.838 336.062 C 85.681 335.808,85.724 335.600,85.934 335.600 C 86.143 335.600,86.421 335.878,86.552 336.219 C 86.682 336.559,87.017 336.808,87.295 336.771 C 88.351 336.633,88.709 336.822,88.656 337.490 C 88.625 337.869,88.870 338.202,89.200 338.229 C 89.530 338.256,90.205 338.306,90.700 338.339 C 91.235 338.375,91.600 338.661,91.600 339.043 C 91.600 339.459,91.818 339.602,92.221 339.447 C 92.562 339.316,92.745 339.366,92.626 339.558 C 92.508 339.749,93.218 339.865,94.205 339.814 C 95.830 339.730,96.173 339.919,96.067 340.841 C 95.995 341.465,117.411 341.955,118.948 341.365 C 119.285 341.235,119.764 340.515,120.012 339.765 C 120.259 339.014,120.608 338.400,120.787 338.400 C 120.965 338.400,121.231 337.761,121.378 336.979 C 121.524 336.197,121.904 335.458,122.222 335.336 C 122.540 335.214,122.800 334.774,122.800 334.357 C 122.800 333.941,123.160 333.240,123.600 332.800 C 124.040 332.360,124.400 331.822,124.400 331.603 C 124.400 331.385,124.760 330.982,125.200 330.707 C 125.640 330.432,126.000 330.021,126.000 329.792 C 126.000 329.329,130.855 324.400,131.311 324.400 C 131.470 324.400,132.005 324.032,132.500 323.581 C 132.995 323.131,133.671 322.516,134.003 322.213 C 134.335 321.911,135.087 321.543,135.674 321.396 C 136.262 321.248,136.833 320.891,136.944 320.602 C 137.055 320.312,137.733 319.947,138.450 319.789 C 139.168 319.631,140.003 319.254,140.306 318.951 C 140.609 318.648,141.249 318.398,141.729 318.395 C 143.421 318.384,144.346 317.938,144.287 317.161 C 144.232 316.425,143.633 316.400,126.259 316.400 C 110.173 316.400,108.239 316.332,107.816 315.754 C 107.502 315.325,106.560 315.056,105.019 314.955 C 103.153 314.833,102.507 314.601,101.746 313.779 C 101.172 313.160,100.599 312.873,100.298 313.054 C 100.011 313.227,100.054 313.034,100.400 312.600 C 100.750 312.161,100.791 311.972,100.500 312.147 C 100.225 312.312,100.000 312.257,100.000 312.024 C 100.000 311.791,99.736 311.600,99.413 311.600 C 99.024 311.600,98.910 311.363,99.076 310.900 C 99.214 310.515,99.187 310.326,99.016 310.481 C 98.390 311.046,97.600 309.611,97.600 307.909 C 97.600 306.947,97.375 305.918,97.100 305.621 C 96.700 305.190,96.700 305.139,97.100 305.365 C 97.375 305.520,97.600 305.457,97.600 305.224 C 97.600 304.991,97.375 304.797,97.100 304.794 C 96.717 304.789,96.721 304.711,97.121 304.457 C 97.408 304.275,97.611 303.963,97.574 303.763 C 97.275 302.177,97.659 300.800,98.400 300.800 C 98.840 300.800,99.179 300.665,99.153 300.500 C 98.994 299.495,99.263 298.849,99.760 299.040 C 100.067 299.158,100.455 299.034,100.621 298.765 C 100.821 298.442,100.757 298.379,100.432 298.580 C 100.054 298.814,100.056 298.699,100.444 298.079 C 100.731 297.619,101.263 297.335,101.686 297.417 C 102.200 297.516,102.391 297.352,102.313 296.880 C 102.222 296.333,102.572 296.176,104.100 296.078 C 105.145 296.011,106.000 295.796,106.000 295.601 C 106.000 295.406,106.369 295.317,106.820 295.404 C 107.286 295.494,107.736 295.311,107.863 294.981 C 108.056 294.477,115.766 294.400,166.231 294.400 L 224.376 294.400 224.375 282.599 C 224.374 276.108,224.271 270.528,224.144 270.199 C 223.950 269.693,222.596 269.600,215.436 269.600 L 206.958 269.600 206.975 264.214 C 206.989 259.565,206.897 258.758,206.301 258.314 C 205.690 257.859,205.595 256.770,205.478 248.897 C 205.355 240.660,205.287 239.950,204.573 239.396 C 203.813 238.808,203.814 238.802,204.600 239.032 C 205.339 239.247,205.348 239.222,204.718 238.702 C 204.128 238.214,204.026 237.193,203.964 231.169 L 203.891 224.200 214.138 224.093 L 224.386 223.987 224.293 211.693 L 224.200 199.400 212.500 199.294 L 200.800 199.188 200.769 194.694 C 200.695 183.984,200.654 183.200,200.167 183.200 C 199.383 183.200,199.248 181.827,199.157 172.900 C 199.091 166.487,198.949 164.400,198.578 164.400 C 197.772 164.400,197.600 163.372,197.600 158.567 L 197.600 154.000 210.757 154.000 C 222.386 154.000,223.943 153.926,224.157 153.367 C 224.776 151.755,224.416 129.292,223.767 129.043 C 223.419 128.909,197.679 128.800,166.567 128.800 L 110.000 128.800 109.953 127.900 C 109.927 127.405,109.933 126.781,109.967 126.513 C 110.001 126.244,109.663 125.796,109.215 125.516 C 108.514 125.079,108.400 124.592,108.400 122.048 C 108.400 119.821,108.245 118.975,107.773 118.629 C 107.323 118.301,107.109 117.325,107.019 115.185 C 106.950 113.543,106.845 112.110,106.785 112.000 C 106.726 111.890,106.652 111.530,106.620 111.200 C 106.589 110.870,106.346 110.645,106.081 110.700 C 105.586 110.803,105.536 110.485,105.487 106.900 C 105.468 105.454,105.296 104.800,104.937 104.800 C 104.265 104.800,103.996 103.647,103.888 100.300 C 103.814 98.028,103.689 97.600,103.100 97.600 C 102.418 97.600,102.278 96.475,102.292 91.110 C 102.293 90.731,101.972 90.318,101.578 90.193 C 101.001 90.010,100.828 89.407,100.686 87.083 C 100.491 83.876,100.318 82.971,99.814 82.512 C 99.626 82.340,99.594 82.413,99.742 82.672 C 99.891 82.932,99.857 83.241,99.667 83.359 C 99.476 83.476,99.265 82.274,99.198 80.686 C 99.131 79.099,99.059 77.386,99.038 76.879 C 99.010 76.208,98.810 76.009,98.300 76.142 C 97.679 76.305,97.600 75.984,97.600 73.288 C 97.600 70.825,97.452 70.094,96.818 69.419 C 96.186 68.747,96.021 67.947,95.965 65.279 C 95.926 63.461,95.806 62.060,95.699 62.167 C 95.274 62.593,94.400 61.188,94.400 60.079 C 94.400 58.342,96.060 58.400,45.950 58.400 L 0.000 58.400 0.000 71.000 M243.537 130.278 C 243.794 130.760,244.163 131.254,244.358 131.374 C 244.552 131.494,244.824 132.039,244.961 132.586 C 245.098 133.132,245.613 134.197,246.105 134.953 C 246.597 135.708,247.630 137.360,248.400 138.624 C 249.170 139.887,250.560 141.929,251.489 143.161 C 252.418 144.392,253.318 145.586,253.489 145.813 C 255.952 149.087,263.960 157.296,265.538 158.165 C 265.902 158.365,266.344 158.770,266.520 159.065 C 266.696 159.359,267.031 159.600,267.264 159.600 C 267.498 159.600,268.524 160.275,269.544 161.100 C 272.057 163.131,273.894 164.400,274.323 164.400 C 274.518 164.400,274.873 164.805,275.112 165.300 C 275.514 166.133,275.547 166.141,275.556 165.400 C 275.563 164.840,274.717 164.061,272.731 162.800 C 269.738 160.900,269.584 160.785,265.800 157.645 C 259.107 152.090,251.492 143.312,248.237 137.400 C 247.873 136.740,247.230 135.660,246.807 135.000 C 246.384 134.340,245.699 133.080,245.284 132.200 C 244.869 131.320,244.201 130.330,243.800 130.000 C 243.118 129.440,243.100 129.458,243.537 130.278 M171.200 159.000 C 171.200 161.750,171.185 164.115,171.166 164.255 C 171.147 164.396,171.372 164.663,171.666 164.849 C 172.104 165.127,172.099 165.189,171.639 165.194 C 171.260 165.198,171.355 165.440,171.930 165.940 C 172.751 166.651,172.784 167.015,172.816 175.531 C 172.834 180.399,173.006 184.480,173.199 184.600 C 173.392 184.719,173.461 184.318,173.353 183.708 C 173.166 182.661,173.187 182.643,173.732 183.381 C 174.179 183.988,174.323 185.843,174.374 191.681 L 174.441 199.200 150.020 199.200 L 125.600 199.200 125.600 197.600 C 125.600 196.590,125.416 195.998,125.100 195.994 C 124.767 195.990,124.800 195.858,125.200 195.600 C 125.786 195.221,125.724 195.153,124.700 195.050 C 124.372 195.017,124.187 194.244,124.163 192.800 C 124.106 189.354,124.025 188.738,123.658 188.964 C 123.073 189.325,122.600 187.508,122.600 184.900 C 122.600 183.525,122.444 182.400,122.253 182.400 C 122.063 182.400,122.001 182.040,122.116 181.599 C 122.231 181.159,122.175 180.892,121.990 181.006 C 121.444 181.343,121.173 180.551,121.139 178.515 C 121.121 177.462,120.929 176.263,120.713 175.852 C 120.418 175.290,120.443 175.179,120.812 175.407 C 121.132 175.605,121.236 175.517,121.109 175.156 C 121.002 174.850,120.618 174.625,120.257 174.656 C 119.699 174.703,119.600 174.240,119.600 171.584 C 119.600 169.240,119.438 168.296,118.954 167.812 C 118.348 167.206,117.758 163.952,117.813 161.515 C 117.826 160.918,117.755 160.512,117.655 160.611 C 116.977 161.290,116.400 159.608,116.400 156.951 L 116.400 154.000 143.800 154.000 L 171.200 154.000 171.200 159.000 M249.296 165.055 C 249.337 165.543,249.514 165.853,249.691 165.744 C 249.868 165.634,249.911 165.379,249.786 165.177 C 249.661 164.975,249.838 164.916,250.179 165.047 C 250.575 165.199,250.800 165.062,250.800 164.668 C 250.800 164.299,250.482 164.074,250.011 164.109 C 249.457 164.151,249.245 164.431,249.296 165.055 M249.900 166.385 C 249.026 167.236,249.025 167.447,249.888 167.778 C 250.266 167.924,250.452 167.919,250.302 167.769 C 250.151 167.618,250.216 167.143,250.446 166.713 C 250.999 165.680,250.767 165.541,249.900 166.385 M357.762 166.500 L 357.000 167.400 357.891 166.646 C 358.549 166.090,359.151 165.952,360.191 166.121 C 360.966 166.247,361.600 166.181,361.600 165.975 C 361.600 165.162,358.540 165.581,357.762 166.500 M332.461 175.554 C 332.164 175.742,331.984 176.224,332.062 176.624 C 332.177 177.222,332.290 177.159,332.692 176.276 C 333.235 175.085,333.230 175.067,332.461 175.554 M331.000 177.600 C 331.136 177.820,331.057 178.000,330.824 178.000 C 330.591 178.000,330.400 178.270,330.400 178.600 C 330.400 179.252,331.413 179.426,331.778 178.836 C 332.074 178.357,331.619 177.200,331.134 177.200 C 330.924 177.200,330.864 177.380,331.000 177.600 M274.405 180.000 C 274.075 181.124,274.100 182.814,274.448 183.030 C 274.749 183.215,274.716 183.408,274.343 183.644 C 273.912 183.917,273.936 183.989,274.457 183.994 C 274.819 183.997,275.218 183.730,275.345 183.400 C 275.471 183.070,275.379 182.800,275.138 182.800 C 274.868 182.800,274.910 182.544,275.251 182.125 C 275.737 181.527,275.711 181.484,275.022 181.742 C 274.252 182.032,274.252 182.026,275.022 181.148 C 275.450 180.661,275.590 180.385,275.334 180.534 C 275.078 180.683,274.777 180.579,274.666 180.302 C 274.554 180.026,274.437 179.890,274.405 180.000 M357.711 180.449 C 357.464 180.696,357.358 181.146,357.474 181.449 C 357.814 182.334,358.240 182.085,358.240 181.000 C 358.240 180.450,358.222 180.000,358.200 180.000 C 358.178 180.000,357.958 180.202,357.711 180.449 M248.500 182.500 C 248.555 182.775,248.375 182.955,248.100 182.900 C 247.825 182.845,247.600 182.980,247.600 183.200 C 247.600 183.420,247.791 183.600,248.024 183.600 C 248.257 183.600,248.319 183.808,248.162 184.062 C 247.991 184.338,248.051 184.415,248.311 184.255 C 248.573 184.093,248.811 184.425,248.910 185.093 C 249.001 185.702,249.080 185.255,249.085 184.100 C 249.091 182.945,248.939 182.000,248.748 182.000 C 248.556 182.000,248.445 182.225,248.500 182.500 M247.949 184.900 C 247.767 185.257,247.751 186.783,247.931 186.602 C 248.227 186.306,248.450 184.800,248.197 184.800 C 248.089 184.800,247.977 184.845,247.949 184.900 M355.985 186.815 C 355.537 187.263,355.300 187.839,355.459 188.095 C 355.664 188.427,355.798 188.395,355.925 187.980 C 356.024 187.661,356.379 187.085,356.714 186.700 C 357.561 185.728,356.981 185.819,355.985 186.815 M274.093 192.800 C 274.093 193.570,274.175 193.885,274.276 193.500 C 274.376 193.115,274.376 192.485,274.276 192.100 C 274.175 191.715,274.093 192.030,274.093 192.800 M352.000 204.776 C 352.000 205.065,351.740 205.186,351.400 205.055 C 350.992 204.899,350.800 205.077,350.800 205.613 C 350.800 206.046,350.974 206.400,351.186 206.400 C 351.671 206.400,352.546 204.812,352.232 204.499 C 352.105 204.371,352.000 204.496,352.000 204.776 M347.600 216.443 C 347.600 216.686,347.879 216.778,348.221 216.647 C 348.577 216.511,348.737 216.578,348.597 216.805 C 348.463 217.022,348.543 217.200,348.776 217.200 C 349.009 217.200,349.200 216.930,349.200 216.600 C 349.200 216.267,348.844 216.000,348.400 216.000 C 347.960 216.000,347.600 216.199,347.600 216.443 M346.400 223.200 C 346.915 224.163,347.043 224.187,347.353 223.379 C 347.489 223.023,347.422 222.863,347.195 223.003 C 346.978 223.137,346.800 223.057,346.800 222.824 C 346.800 222.591,346.614 222.400,346.386 222.400 C 346.105 222.400,346.110 222.658,346.400 223.200 M177.371 231.300 C 177.346 237.888,177.415 238.671,178.080 239.324 C 178.486 239.722,178.693 240.250,178.540 240.497 C 178.360 240.788,178.155 240.673,177.959 240.173 C 177.706 239.526,177.652 239.511,177.628 240.080 C 177.613 240.454,177.864 240.908,178.186 241.088 C 178.668 241.358,178.795 243.011,178.898 250.349 C 179.010 258.245,179.104 259.341,179.712 259.785 C 180.294 260.211,180.400 261.003,180.400 264.944 L 180.400 269.600 160.800 269.600 L 141.200 269.600 141.200 267.813 C 141.200 266.388,141.078 266.072,140.600 266.255 C 140.145 266.430,139.988 266.161,139.950 265.143 C 139.786 260.678,139.674 259.945,139.055 259.260 C 138.599 258.757,138.360 257.723,138.313 256.059 C 138.273 254.650,138.064 253.597,137.822 253.594 C 137.590 253.591,137.644 253.433,137.943 253.244 C 138.327 253.000,138.354 252.819,138.036 252.622 C 137.789 252.470,137.683 252.190,137.800 252.000 C 137.917 251.810,137.802 251.525,137.545 251.366 C 137.263 251.192,137.183 251.249,137.345 251.511 C 137.492 251.749,137.458 252.040,137.269 252.157 C 137.080 252.274,136.880 251.252,136.825 249.885 C 136.650 245.523,136.579 245.132,135.883 244.742 C 135.350 244.444,135.200 243.798,135.200 241.796 C 135.200 239.858,135.024 239.056,134.480 238.516 C 133.968 238.007,133.724 237.048,133.635 235.200 C 133.423 230.813,133.375 230.590,132.659 230.718 C 132.099 230.817,132.000 230.418,132.000 228.050 C 132.000 226.519,131.891 224.981,131.757 224.633 C 131.538 224.060,133.701 224.000,154.457 224.000 L 177.400 224.000 177.371 231.300 M344.900 229.427 C 344.232 230.147,344.263 230.229,345.200 230.229 C 346.060 230.229,346.155 230.059,345.694 229.344 C 345.480 229.013,345.264 229.035,344.900 229.427 M317.021 231.014 C 316.463 231.437,316.365 231.725,316.676 232.036 C 317.128 232.488,317.696 231.939,317.853 230.900 C 317.945 230.294,317.980 230.290,317.021 231.014 M343.086 236.280 C 343.251 236.709,343.406 236.782,343.508 236.477 C 343.596 236.212,343.833 236.097,344.034 236.221 C 344.235 236.345,344.400 236.257,344.400 236.024 C 344.400 235.791,344.046 235.600,343.613 235.600 C 343.036 235.600,342.895 235.782,343.086 236.280 M269.679 238.582 C 269.729 239.781,269.867 240.666,269.985 240.548 C 270.331 240.202,270.262 236.400,269.909 236.400 C 269.732 236.400,269.629 237.382,269.679 238.582 M314.985 237.224 C 314.827 237.480,314.946 237.847,315.249 238.039 C 316.094 238.574,316.472 238.467,316.329 237.733 C 316.168 236.903,315.370 236.601,314.985 237.224 M243.346 239.367 C 243.317 239.825,243.167 240.580,243.014 241.045 C 242.815 241.649,242.932 241.965,243.424 242.154 C 243.978 242.366,244.022 242.309,243.652 241.862 C 243.293 241.431,243.348 241.182,243.895 240.753 C 244.535 240.251,244.549 240.265,244.051 240.900 C 243.749 241.285,243.685 241.600,243.908 241.600 C 244.448 241.600,244.859 240.484,244.420 240.212 C 244.230 240.095,244.161 239.669,244.267 239.266 C 244.381 238.828,244.245 238.533,243.929 238.533 C 243.638 238.533,243.376 238.908,243.346 239.367 M243.067 243.467 C 242.546 243.988,242.811 244.800,243.500 244.794 C 244.054 244.789,244.085 244.715,243.649 244.439 C 243.346 244.247,243.221 243.889,243.372 243.645 C 243.675 243.155,243.487 243.046,243.067 243.467 M313.333 244.900 C 313.310 245.695,313.365 245.850,313.475 245.300 C 313.575 244.805,313.823 244.400,314.028 244.400 C 314.233 244.400,314.400 244.220,314.400 244.000 C 314.400 242.887,313.366 243.759,313.333 244.900 M340.624 247.550 C 340.792 248.161,340.738 248.409,340.470 248.244 C 340.242 248.102,339.952 248.154,339.826 248.358 C 339.699 248.563,339.862 248.691,340.187 248.643 C 341.122 248.506,341.309 248.117,340.818 247.330 C 340.418 246.690,340.394 246.717,340.624 247.550 M311.600 249.914 C 311.600 250.111,312.793 251.288,312.831 251.129 C 313.124 249.896,313.046 249.661,312.361 249.713 C 311.942 249.744,311.600 249.835,311.600 249.914 M269.153 253.900 C 269.127 254.065,269.134 254.357,269.169 254.549 C 269.204 254.741,268.955 254.792,268.616 254.662 C 268.277 254.532,268.000 254.599,268.000 254.813 C 268.000 255.026,268.180 255.200,268.400 255.200 C 268.620 255.200,268.935 255.202,269.100 255.205 C 269.265 255.208,269.420 254.848,269.445 254.405 C 269.488 253.648,269.256 253.247,269.153 253.900 M310.800 256.344 C 310.800 256.621,310.650 256.755,310.467 256.641 C 310.283 256.528,310.133 256.697,310.133 257.018 C 310.133 257.692,310.367 257.735,311.197 257.211 C 311.672 256.910,311.692 256.732,311.297 256.337 C 310.901 255.941,310.800 255.943,310.800 256.344 M268.089 258.033 C 268.047 259.369,268.185 259.867,268.594 259.867 C 269.031 259.867,269.062 259.689,268.733 259.075 C 268.402 258.456,268.450 258.204,268.955 257.921 C 269.653 257.531,269.845 256.400,269.213 256.400 C 268.999 256.400,268.929 256.670,269.055 257.000 C 269.182 257.330,269.100 257.600,268.872 257.600 C 268.645 257.600,268.388 257.285,268.303 256.900 C 268.217 256.515,268.121 257.025,268.089 258.033 M241.800 259.081 C 241.800 260.155,242.003 260.869,242.345 261.000 C 242.689 261.132,242.811 261.005,242.676 260.653 C 242.558 260.348,242.673 259.869,242.931 259.590 C 243.297 259.194,243.275 259.154,242.832 259.407 C 242.264 259.732,242.266 259.708,243.010 257.886 C 243.134 257.581,242.931 257.371,242.510 257.371 C 241.941 257.371,241.800 257.710,241.800 259.081 M337.517 258.423 C 337.140 258.642,336.935 259.085,337.059 259.411 C 337.426 260.367,338.240 260.084,338.240 259.000 C 338.240 258.450,338.231 258.005,338.220 258.012 C 338.209 258.019,337.892 258.204,337.517 258.423 M308.400 265.768 C 308.400 266.080,308.086 266.882,307.703 267.550 C 307.152 268.510,307.108 268.868,307.496 269.256 C 308.150 269.910,308.643 269.374,308.047 268.656 C 307.687 268.223,307.699 268.047,308.101 267.893 C 308.588 267.706,309.058 265.200,308.606 265.200 C 308.493 265.200,308.400 265.455,308.400 265.768 M334.278 271.686 C 334.633 272.079,334.948 272.400,334.976 272.400 C 335.005 272.400,335.029 272.079,335.029 271.686 C 335.029 271.273,334.734 270.971,334.330 270.971 C 333.684 270.971,333.680 271.026,334.278 271.686 M330.560 283.819 C 330.261 285.009,330.451 285.309,331.299 284.983 C 332.022 284.706,332.030 282.801,331.308 282.800 C 331.037 282.800,330.700 283.258,330.560 283.819 M163.600 317.182 C 163.600 317.776,163.960 318.021,165.100 318.203 C 165.925 318.335,166.870 318.614,167.200 318.822 C 167.530 319.031,168.250 319.381,168.800 319.601 C 169.350 319.820,170.070 320.180,170.400 320.401 C 170.730 320.621,171.426 320.985,171.947 321.209 C 172.468 321.433,173.368 321.978,173.947 322.420 C 174.526 322.862,175.526 323.624,176.168 324.112 C 178.546 325.920,183.200 330.866,183.200 331.585 C 183.200 331.759,183.480 332.135,183.823 332.419 C 184.166 332.704,184.702 333.491,185.015 334.168 C 185.328 334.846,185.751 335.670,185.956 336.000 C 186.161 336.330,186.839 337.723,187.464 339.095 L 188.600 341.589 212.400 341.506 C 225.490 341.460,233.500 341.368,230.200 341.301 L 224.200 341.180 224.289 328.790 L 224.378 316.400 193.989 316.400 C 164.101 316.400,163.600 316.413,163.600 317.182 M311.525 341.499 C 314.893 341.566,320.293 341.566,323.525 341.499 C 326.756 341.432,324.000 341.377,317.400 341.377 C 310.800 341.377,308.156 341.432,311.525 341.499 " stroke="none" fill="#64ccfc" fill-rule="evenodd"></path><path id="path4" d="M96.000 68.338 C 96.000 68.524,96.360 69.002,96.800 69.400 C 97.240 69.798,97.600 70.006,97.600 69.862 C 97.600 69.718,97.240 69.240,96.800 68.800 C 96.360 68.360,96.000 68.152,96.000 68.338 M74.400 93.300 C 74.400 93.659,74.592 94.071,74.827 94.216 C 75.513 94.640,75.580 94.261,74.967 93.423 C 74.493 92.774,74.400 92.754,74.400 93.300 M108.400 124.716 C 108.400 124.877,108.753 125.228,109.185 125.498 C 109.832 125.902,109.932 125.889,109.754 125.425 C 109.522 124.820,108.400 124.233,108.400 124.716 M223.917 129.140 C 224.325 129.399,224.409 132.043,224.317 141.734 L 224.200 154.001 237.500 154.000 L 250.800 154.000 250.800 158.800 C 250.800 163.379,250.762 163.600,249.976 163.600 C 249.523 163.600,249.259 163.772,249.389 163.983 C 249.519 164.193,249.890 164.264,250.213 164.140 C 250.583 163.998,250.800 164.159,250.800 164.575 C 250.800 164.967,250.535 165.187,250.147 165.118 C 249.375 164.979,248.969 166.610,249.667 167.042 C 249.918 167.197,250.025 167.161,249.904 166.962 C 249.783 166.763,249.969 166.336,250.318 166.013 C 250.884 165.489,250.918 165.511,250.628 166.213 C 250.450 166.646,250.296 167.208,250.286 167.462 C 250.275 167.716,250.027 167.832,249.733 167.719 C 249.440 167.607,249.200 167.714,249.200 167.957 C 249.200 168.201,249.425 168.403,249.700 168.406 C 250.088 168.411,250.091 168.481,249.714 168.721 C 249.432 168.900,249.241 169.863,249.259 171.015 C 249.340 176.334,249.047 186.063,248.838 185.033 C 248.554 183.639,247.600 183.144,247.600 184.390 C 247.600 184.862,247.780 185.136,248.000 185.000 C 248.452 184.721,248.549 185.317,248.122 185.745 C 247.662 186.205,247.619 187.341,248.042 187.851 C 248.279 188.136,248.291 188.420,248.071 188.556 C 247.869 188.681,247.698 189.372,247.691 190.092 C 247.684 190.811,247.661 193.155,247.639 195.300 L 247.600 199.200 235.900 199.200 L 224.200 199.200 224.297 211.600 L 224.394 224.000 214.221 224.000 C 208.625 224.000,203.964 224.135,203.862 224.300 C 203.760 224.465,212.942 224.552,224.266 224.493 C 238.158 224.421,244.774 224.518,244.604 224.793 C 244.466 225.017,244.565 225.200,244.825 225.200 C 245.146 225.200,245.172 225.361,244.906 225.700 C 244.691 225.975,244.490 229.140,244.460 232.733 C 244.430 236.327,244.312 239.419,244.196 239.606 C 244.081 239.792,244.162 240.053,244.376 240.185 C 244.848 240.477,244.477 241.600,243.908 241.600 C 243.685 241.600,243.749 241.285,244.051 240.900 C 244.549 240.265,244.535 240.251,243.895 240.753 C 243.339 241.189,243.290 241.427,243.663 241.876 C 244.034 242.322,244.018 242.419,243.591 242.323 C 243.292 242.255,242.975 242.536,242.885 242.947 C 242.773 243.466,242.876 243.600,243.223 243.386 C 243.563 243.176,243.623 243.239,243.411 243.583 C 243.228 243.878,243.328 244.235,243.649 244.439 C 244.087 244.716,244.060 244.789,243.515 244.794 C 242.894 244.799,242.833 245.429,242.866 251.500 C 242.887 255.185,242.759 258.545,242.584 258.966 C 242.335 259.561,242.390 259.659,242.832 259.407 C 243.275 259.154,243.297 259.194,242.931 259.590 C 242.673 259.869,242.558 260.348,242.676 260.653 C 242.822 261.035,242.688 261.132,242.245 260.962 C 241.771 260.780,241.600 260.950,241.600 261.606 C 241.600 262.394,241.679 262.434,242.281 261.949 C 242.922 261.432,242.922 261.458,242.281 262.389 C 241.783 263.112,241.600 264.213,241.600 266.489 L 241.600 269.600 232.900 269.600 L 224.200 269.600 224.300 281.900 L 224.400 294.200 276.600 294.301 L 328.800 294.403 328.800 292.584 C 328.800 291.155,328.933 290.790,329.422 290.882 C 329.931 290.979,330.077 290.419,330.225 287.800 C 330.457 283.692,330.673 282.800,331.438 282.800 C 331.868 282.800,332.038 282.460,331.988 281.700 C 331.837 279.412,331.990 278.800,332.715 278.800 C 333.146 278.800,333.454 278.479,333.491 277.991 C 333.530 277.464,333.386 277.282,333.076 277.468 C 332.712 277.687,332.709 277.618,333.066 277.177 C 333.611 276.502,333.600 276.568,333.600 274.044 C 333.600 272.435,333.723 272.099,334.292 272.144 C 334.747 272.181,335.003 271.891,335.038 271.300 C 335.067 270.805,334.913 270.400,334.696 270.400 C 334.448 270.400,334.441 270.215,334.677 269.900 C 334.883 269.625,335.102 268.680,335.163 267.800 C 335.225 266.920,335.452 265.930,335.668 265.600 C 335.992 265.105,336.022 265.123,335.843 265.700 C 335.723 266.085,335.799 266.400,336.013 266.400 C 336.226 266.400,336.400 266.235,336.400 266.033 C 336.400 265.831,336.521 265.351,336.668 264.967 C 336.860 264.466,336.793 264.357,336.428 264.583 C 336.032 264.827,336.015 264.719,336.350 264.094 C 336.586 263.653,336.783 262.686,336.789 261.946 C 336.805 259.627,337.043 258.651,337.631 258.492 C 338.087 258.370,338.081 258.431,337.600 258.800 C 337.067 259.210,337.067 259.243,337.600 259.097 C 338.168 258.942,338.249 258.537,338.357 255.327 C 338.388 254.401,338.632 253.980,339.253 253.783 C 339.923 253.571,339.987 253.437,339.553 253.162 C 339.249 252.970,339.196 252.809,339.435 252.806 C 339.700 252.802,339.854 251.928,339.830 250.563 C 339.798 248.766,339.936 248.248,340.535 247.928 C 341.048 247.653,341.222 247.227,341.094 246.555 C 340.991 246.019,341.064 245.484,341.255 245.366 C 341.446 245.248,341.491 244.706,341.355 244.163 C 341.172 243.433,341.344 242.969,342.015 242.387 C 342.514 241.954,342.709 241.600,342.447 241.600 C 342.111 241.600,342.086 241.386,342.363 240.870 C 342.577 240.468,342.795 239.118,342.845 237.870 C 342.922 235.971,343.056 235.600,343.668 235.600 C 344.501 235.600,344.634 234.794,343.920 234.080 C 343.547 233.707,343.547 233.600,343.920 233.600 C 344.223 233.600,344.400 232.927,344.400 231.771 C 344.400 229.938,345.312 228.254,345.736 229.304 C 345.847 229.577,345.951 228.495,345.968 226.900 C 345.987 225.188,346.170 224.000,346.414 224.000 C 346.695 224.000,346.690 223.742,346.400 223.200 C 346.165 222.760,346.131 222.400,346.325 222.400 C 346.519 222.400,346.882 222.805,347.133 223.300 C 347.383 223.795,347.569 223.930,347.546 223.600 C 347.376 221.113,347.668 217.200,348.024 217.200 C 348.257 217.200,348.337 217.378,348.203 217.595 C 348.057 217.832,348.240 217.883,348.659 217.722 C 349.093 217.555,349.176 217.392,348.877 217.292 C 348.612 217.204,348.495 216.969,348.618 216.770 C 348.741 216.572,348.562 216.516,348.221 216.647 C 347.879 216.778,347.600 216.686,347.600 216.443 C 347.600 216.199,347.928 216.000,348.329 216.000 C 348.928 216.000,349.074 215.630,349.152 213.909 C 349.253 211.712,349.375 211.400,350.133 211.400 C 350.672 211.400,350.683 211.328,350.750 207.613 C 350.791 205.312,350.905 204.865,351.400 205.055 C 351.730 205.182,352.016 205.131,352.035 204.943 C 352.054 204.754,352.132 203.984,352.209 203.230 C 352.450 200.862,352.788 199.947,353.312 200.248 C 353.580 200.402,353.671 200.386,353.514 200.212 C 353.357 200.037,353.408 199.558,353.628 199.147 C 353.899 198.641,353.894 198.400,353.614 198.400 C 353.386 198.400,353.200 198.209,353.200 197.976 C 353.200 197.743,353.380 197.664,353.600 197.800 C 353.847 197.952,354.000 197.271,354.000 196.024 C 354.000 194.492,354.146 194.000,354.600 194.000 C 354.930 194.000,355.215 193.865,355.233 193.700 C 355.251 193.535,355.347 192.905,355.447 192.300 C 355.552 191.661,355.444 191.200,355.190 191.200 C 354.939 191.200,354.887 190.987,355.067 190.700 C 355.240 190.425,355.401 189.555,355.426 188.766 C 355.476 187.163,355.824 186.400,356.504 186.400 C 356.832 186.400,356.826 186.534,356.480 186.880 C 356.216 187.144,356.000 187.630,356.000 187.960 C 356.000 189.004,356.740 187.888,356.989 186.470 C 357.167 185.454,357.101 185.212,356.711 185.446 C 356.297 185.695,356.297 185.634,356.710 185.124 C 357.005 184.759,357.144 183.885,357.039 183.042 C 356.927 182.140,357.010 181.682,357.256 181.835 C 357.478 181.972,357.597 181.753,357.527 181.340 C 357.457 180.933,357.596 180.635,357.835 180.678 C 358.104 180.727,358.300 179.808,358.347 178.278 C 358.406 176.366,358.604 175.648,359.212 175.136 C 359.645 174.771,360.000 174.240,360.000 173.956 C 360.000 173.555,359.893 173.547,359.520 173.920 C 359.256 174.184,358.896 174.400,358.720 174.400 C 358.544 174.400,358.760 174.040,359.200 173.600 C 359.729 173.071,360.000 172.267,360.000 171.227 C 360.000 170.005,360.179 169.597,360.800 169.400 C 361.813 169.078,361.944 166.618,360.967 166.243 C 359.861 165.818,358.514 165.980,358.000 166.600 C 357.726 166.930,357.188 167.200,356.805 167.200 C 356.422 167.200,355.650 167.560,355.091 168.000 C 354.531 168.440,353.771 168.800,353.400 168.800 C 353.029 168.800,352.269 169.160,351.709 169.600 C 351.150 170.040,350.446 170.400,350.145 170.400 C 349.843 170.400,348.925 170.760,348.104 171.200 C 347.284 171.640,346.173 172.000,345.637 172.000 C 345.101 172.000,344.366 172.269,344.002 172.598 C 343.639 172.927,342.455 173.311,341.371 173.452 C 340.287 173.593,339.130 173.934,338.800 174.211 C 338.470 174.488,337.062 174.843,335.672 175.000 C 333.537 175.241,333.076 175.434,332.708 176.243 C 332.468 176.769,332.108 177.200,331.909 177.200 C 331.709 177.200,331.661 177.561,331.801 178.003 C 331.988 178.593,331.829 178.889,331.198 179.122 C 330.727 179.297,330.354 179.566,330.370 179.720 C 330.537 181.296,330.328 183.306,330.044 182.857 C 329.820 182.504,329.610 182.461,329.442 182.733 C 329.299 182.963,329.502 183.346,329.892 183.585 C 330.547 183.987,330.540 184.012,329.808 183.910 C 329.109 183.813,329.013 184.045,328.987 185.898 C 328.966 187.416,328.763 188.139,328.253 188.512 C 327.459 189.092,327.070 191.197,327.755 191.206 C 328.003 191.210,327.956 191.367,327.648 191.562 C 327.296 191.785,327.163 192.365,327.280 193.163 C 327.400 193.983,327.254 194.585,326.855 194.908 C 326.358 195.310,326.308 195.297,326.585 194.838 C 326.822 194.445,326.776 194.367,326.435 194.579 C 326.166 194.745,326.040 195.127,326.155 195.428 C 326.271 195.728,326.223 196.062,326.050 196.169 C 325.877 196.276,325.756 197.002,325.782 197.782 L 325.829 199.200 299.961 199.200 C 274.434 199.200,274.091 199.189,273.884 198.400 C 273.769 197.961,273.805 197.520,273.964 197.422 C 274.123 197.324,274.282 194.489,274.317 191.123 C 274.371 185.979,274.485 184.927,275.032 184.527 C 275.390 184.265,275.589 183.814,275.473 183.525 C 275.316 183.132,275.255 183.126,275.232 183.500 C 275.214 183.775,274.885 183.997,274.500 183.994 C 273.955 183.989,273.920 183.912,274.343 183.644 C 274.716 183.408,274.749 183.215,274.448 183.030 C 274.091 182.809,274.070 181.868,274.379 180.000 C 274.397 179.890,274.579 180.064,274.783 180.387 C 275.019 180.760,274.996 181.163,274.721 181.496 C 274.390 181.894,274.431 181.963,274.893 181.786 C 276.287 181.251,275.732 164.400,274.320 164.400 C 273.894 164.400,272.051 163.126,269.544 161.100 C 268.524 160.275,267.498 159.600,267.264 159.600 C 267.031 159.600,266.696 159.359,266.520 159.065 C 266.344 158.770,265.902 158.365,265.538 158.165 C 263.949 157.290,255.496 148.613,253.506 145.813 C 253.344 145.586,252.756 144.830,252.199 144.134 C 250.269 141.722,245.784 134.661,245.000 132.800 C 244.165 130.819,242.995 129.240,242.205 129.027 C 240.892 128.674,223.353 128.783,223.917 129.140 M87.088 150.015 C 87.202 150.452,87.510 150.656,87.856 150.523 C 88.581 150.245,88.366 149.501,87.527 149.377 C 87.096 149.314,86.957 149.516,87.088 150.015 M330.400 177.551 C 330.400 177.798,330.591 178.000,330.824 178.000 C 331.057 178.000,331.136 178.180,331.000 178.400 C 330.864 178.620,330.943 178.800,331.176 178.800 C 331.788 178.800,331.697 178.178,331.000 177.600 C 330.585 177.256,330.400 177.241,330.400 177.551 M173.345 183.600 C 173.419 184.150,173.597 184.555,173.740 184.500 C 174.175 184.333,174.169 184.230,173.681 183.400 C 173.239 182.648,173.218 182.660,173.345 183.600 M96.543 192.200 C 96.873 192.530,97.240 192.800,97.359 192.800 C 97.478 192.800,97.471 192.530,97.345 192.200 C 97.218 191.870,96.851 191.600,96.529 191.600 C 96.021 191.600,96.022 191.680,96.543 192.200 M99.468 205.834 C 99.602 206.182,99.823 206.317,99.960 206.134 C 100.097 205.950,100.372 205.665,100.571 205.500 C 100.770 205.335,100.549 205.200,100.079 205.200 C 99.464 205.200,99.293 205.377,99.468 205.834 M131.600 224.300 C 131.600 224.572,148.437 224.568,169.600 224.290 C 174.110 224.231,167.405 224.142,154.700 224.091 C 141.995 224.041,131.600 224.135,131.600 224.300 M318.900 224.935 C 318.042 225.405,318.032 225.461,318.700 226.141 C 319.255 226.706,319.276 226.827,318.800 226.727 C 318.338 226.629,318.172 227.084,318.079 228.710 C 317.992 230.220,317.821 230.739,317.479 230.534 C 317.142 230.332,317.150 230.431,317.505 230.870 C 317.919 231.382,317.888 231.593,317.328 232.047 C 316.746 232.519,316.696 232.518,316.985 232.038 C 317.213 231.660,317.175 231.568,316.868 231.758 C 316.617 231.913,316.427 232.436,316.446 232.920 C 316.589 236.692,316.287 238.418,315.527 238.177 C 314.907 237.980,314.775 238.113,314.842 238.867 C 315.104 241.835,314.811 243.199,313.900 243.246 C 313.223 243.281,313.173 243.338,313.700 243.476 C 314.085 243.576,314.400 243.845,314.400 244.072 C 314.400 244.300,314.175 244.400,313.900 244.296 C 313.542 244.161,313.366 244.792,313.280 246.524 C 313.196 248.218,312.957 249.099,312.480 249.471 C 311.858 249.957,311.857 249.982,312.469 249.770 C 312.923 249.613,313.109 249.737,313.047 250.157 C 312.935 250.922,312.400 251.508,312.400 250.867 C 312.400 250.610,312.219 250.400,311.999 250.400 C 311.778 250.400,311.623 250.895,311.655 251.500 C 311.814 254.521,311.605 255.505,310.760 255.726 C 310.207 255.871,310.027 256.120,310.233 256.453 C 310.472 256.840,310.585 256.846,310.707 256.478 C 310.796 256.212,311.033 256.097,311.234 256.221 C 311.822 256.584,311.657 257.128,310.885 257.373 C 310.347 257.544,310.154 258.057,310.109 259.438 C 310.068 260.692,309.819 261.450,309.325 261.825 C 308.749 262.262,308.723 262.378,309.200 262.393 C 309.554 262.405,309.636 262.533,309.400 262.706 C 308.874 263.092,308.699 263.835,308.645 265.915 C 308.620 266.884,308.364 267.775,308.057 267.965 C 307.679 268.198,307.649 268.383,307.957 268.574 C 308.521 268.922,308.533 269.600,307.976 269.600 C 307.743 269.600,307.680 269.375,307.835 269.100 C 308.061 268.700,308.010 268.700,307.579 269.100 C 307.163 269.486,302.582 269.600,287.520 269.600 C 267.932 269.600,267.775 269.590,267.939 268.339 C 267.958 268.196,268.002 265.406,268.038 262.139 C 268.073 258.873,268.196 256.470,268.311 256.800 C 268.426 257.130,268.718 257.532,268.960 257.694 C 269.275 257.904,269.270 257.989,268.942 257.994 C 268.691 257.997,268.511 258.450,268.542 259.000 C 268.615 260.258,268.723 260.254,269.210 258.974 C 269.469 258.292,269.461 257.688,269.186 257.174 C 268.901 256.640,268.901 256.400,269.186 256.400 C 269.414 256.400,269.600 256.130,269.600 255.800 C 269.600 255.470,269.465 255.221,269.300 255.247 C 268.574 255.362,268.000 255.170,268.000 254.813 C 268.000 254.599,268.252 254.522,268.560 254.640 C 268.867 254.758,269.255 254.634,269.421 254.365 C 269.633 254.024,269.555 253.978,269.162 254.215 C 268.722 254.480,268.695 254.429,269.036 253.977 C 269.296 253.634,269.509 250.980,269.562 247.425 C 269.636 242.463,269.761 241.371,270.296 240.979 C 270.971 240.486,271.309 238.800,270.733 238.800 C 270.550 238.800,270.400 238.609,270.400 238.376 C 270.400 238.143,270.564 238.054,270.765 238.178 C 270.976 238.309,271.126 236.512,271.121 233.902 C 271.117 231.426,271.133 228.272,271.157 226.894 L 271.200 224.389 295.500 224.415 C 314.995 224.437,319.622 224.539,318.900 224.935 M270.215 238.367 C 270.194 241.087,269.791 241.249,269.679 238.582 C 269.629 237.382,269.732 236.400,269.909 236.400 C 270.086 236.400,270.224 237.285,270.215 238.367 M177.488 238.700 C 177.233 239.180,178.283 240.913,178.558 240.468 C 178.695 240.246,178.544 239.801,178.223 239.480 C 177.901 239.158,177.750 238.784,177.886 238.648 C 178.022 238.511,178.024 238.400,177.890 238.400 C 177.757 238.400,177.576 238.535,177.488 238.700 M85.800 274.800 C 85.086 275.107,85.078 275.147,85.724 275.172 C 86.122 275.187,86.336 275.380,86.200 275.600 C 86.064 275.820,86.143 276.000,86.376 276.000 C 86.609 276.000,86.800 275.640,86.800 275.200 C 86.800 274.760,86.755 274.413,86.700 274.428 C 86.645 274.444,86.240 274.611,85.800 274.800 M76.284 284.400 C 76.153 284.900,76.272 285.200,76.600 285.200 C 76.928 285.200,77.047 284.900,76.916 284.400 C 76.801 283.960,76.659 283.600,76.600 283.600 C 76.541 283.600,76.399 283.960,76.284 284.400 M106.900 294.900 C 106.955 295.175,106.775 295.355,106.500 295.300 C 106.225 295.245,106.000 295.380,106.000 295.600 C 106.000 295.820,106.270 296.000,106.600 296.000 C 106.930 296.000,107.200 295.820,107.200 295.600 C 107.200 295.380,107.403 295.245,107.650 295.300 C 107.897 295.355,108.181 295.130,108.280 294.800 C 108.441 294.267,108.414 294.267,108.037 294.800 C 107.749 295.207,107.610 295.239,107.606 294.900 C 107.603 294.625,107.420 294.400,107.200 294.400 C 106.980 294.400,106.845 294.625,106.900 294.900 M144.294 316.639 C 144.163 316.771,144.143 317.107,144.250 317.387 C 144.452 317.913,143.273 318.385,141.729 318.395 C 141.249 318.398,140.609 318.648,140.306 318.951 C 140.003 319.254,139.168 319.631,138.450 319.789 C 137.733 319.947,137.055 320.312,136.944 320.602 C 136.833 320.891,136.262 321.248,135.674 321.396 C 135.087 321.543,134.335 321.911,134.003 322.213 C 133.671 322.516,132.995 323.131,132.500 323.581 C 132.005 324.032,131.460 324.400,131.288 324.400 C 130.835 324.400,126.000 329.350,126.000 329.815 C 126.000 330.031,125.640 330.432,125.200 330.707 C 124.760 330.982,124.400 331.385,124.400 331.603 C 124.400 331.822,124.040 332.360,123.600 332.800 C 123.160 333.240,122.800 333.941,122.800 334.357 C 122.800 334.774,122.540 335.214,122.222 335.336 C 121.904 335.458,121.524 336.197,121.378 336.979 C 121.231 337.761,120.969 338.400,120.795 338.400 C 120.544 338.400,119.600 340.492,119.600 341.047 C 119.600 341.978,121.148 340.032,122.300 337.653 C 126.800 328.361,136.191 320.357,144.425 318.795 C 146.921 318.322,147.200 318.159,147.200 317.176 C 147.200 316.415,144.937 315.996,144.294 316.639 M160.472 317.300 C 160.580 318.060,160.994 318.278,163.134 318.701 C 164.528 318.977,166.053 319.472,166.523 319.801 C 166.993 320.131,167.653 320.407,167.989 320.416 C 168.325 320.424,169.590 321.051,170.800 321.808 C 172.010 322.566,173.379 323.355,173.843 323.561 C 176.766 324.864,183.145 332.541,185.546 337.647 C 186.720 340.145,187.789 341.544,188.205 341.128 C 188.372 340.962,186.852 337.515,185.944 336.000 C 185.746 335.670,185.328 334.846,185.015 334.168 C 184.702 333.491,184.166 332.704,183.823 332.419 C 183.480 332.135,183.200 331.759,183.200 331.585 C 183.200 330.866,178.546 325.920,176.168 324.112 C 175.526 323.624,174.526 322.862,173.947 322.420 C 173.368 321.978,172.468 321.433,171.947 321.209 C 171.426 320.985,170.730 320.621,170.400 320.401 C 170.070 320.180,169.350 319.820,168.800 319.601 C 168.250 319.381,167.530 319.031,167.200 318.822 C 166.870 318.614,165.925 318.335,165.100 318.203 C 163.960 318.021,163.600 317.776,163.600 317.182 C 163.600 316.534,163.321 316.400,161.972 316.400 C 160.513 316.400,160.358 316.493,160.472 317.300 M224.394 316.500 C 224.391 316.555,224.346 322.135,224.294 328.900 L 224.200 341.200 230.673 341.200 L 237.146 341.200 237.920 340.100 C 238.346 339.495,238.833 338.557,239.001 338.015 C 240.171 334.254,246.113 326.967,250.562 323.837 C 253.666 321.652,259.156 318.806,260.278 318.798 C 261.720 318.788,263.600 317.873,263.600 317.181 C 263.600 316.501,224.434 315.821,224.394 316.500 M278.630 317.065 C 278.316 317.884,278.901 318.279,280.937 318.623 C 288.175 319.846,297.018 327.044,302.344 336.047 C 302.815 336.843,303.200 337.785,303.200 338.141 C 303.200 338.496,303.695 339.330,304.300 339.994 L 305.400 341.200 317.400 341.211 C 324.000 341.217,329.628 341.217,329.906 341.211 C 330.305 341.202,330.389 338.599,330.306 328.900 L 330.200 316.600 304.544 316.497 C 280.845 316.402,278.868 316.445,278.630 317.065 " stroke="none" fill="#5cacfb" fill-rule="evenodd"></path></g></svg>