<svg id="svg" version="1.1" xmlns="http://www.w3.org/2000/svg" xmlns:xlink="http://www.w3.org/1999/xlink" width="400" height="400" viewBox="0, 0, 400,400"><g id="svgg"><path id="path0" d="M140.000 75.187 C 138.592 75.452,136.086 76.877,134.600 78.257 C 134.160 78.666,132.741 79.789,131.447 80.753 C 130.153 81.717,128.763 82.837,128.359 83.241 C 127.954 83.646,126.043 85.181,124.112 86.653 C 122.180 88.126,120.420 89.547,120.200 89.811 C 119.980 90.076,118.720 91.075,117.400 92.032 C 116.080 92.988,114.280 94.423,113.400 95.219 C 112.520 96.016,110.792 97.403,109.561 98.302 C 108.330 99.200,107.070 100.180,106.761 100.479 C 104.817 102.362,101.400 104.800,100.704 104.800 C 100.182 104.800,97.676 102.630,93.841 98.857 C 86.858 91.986,86.735 91.906,83.277 91.926 C 76.970 91.962,72.983 98.697,76.120 104.015 C 77.416 106.212,94.021 122.753,96.123 123.940 C 98.597 125.338,102.084 125.152,104.612 123.487 C 106.276 122.391,124.574 107.939,125.200 107.226 C 125.310 107.100,126.390 106.240,127.600 105.313 C 128.810 104.387,130.340 103.151,131.000 102.568 C 131.660 101.985,133.640 100.418,135.400 99.086 C 137.160 97.754,138.934 96.322,139.342 95.904 C 139.749 95.486,141.371 94.192,142.944 93.028 C 148.385 89.005,150.181 86.366,149.921 82.776 C 149.572 77.954,144.778 74.287,140.000 75.187 M192.000 91.460 C 191.450 91.543,190.227 91.710,189.283 91.832 C 181.642 92.819,180.977 105.494,188.430 108.094 C 190.294 108.744,263.664 109.034,267.787 108.407 C 277.764 106.891,277.938 93.186,268.000 91.617 C 265.574 91.234,194.472 91.087,192.000 91.460 M271.257 93.158 C 275.896 96.337,275.800 103.460,271.071 106.963 C 269.925 107.812,196.530 108.560,190.064 107.788 C 183.861 107.048,181.472 98.582,186.180 94.020 C 188.224 92.038,187.528 92.068,230.029 92.136 L 269.859 92.200 271.257 93.158 M189.126 166.779 C 182.392 168.089,180.858 177.979,186.739 182.163 L 188.478 183.400 227.739 183.512 C 253.688 183.585,267.654 183.483,268.929 183.209 C 277.273 181.421,277.426 168.732,269.127 166.818 C 267.134 166.358,191.477 166.321,189.126 166.779 M271.541 168.400 C 273.343 169.744,274.800 172.695,274.800 175.000 C 274.800 177.305,273.343 180.256,271.541 181.600 L 270.200 182.600 229.385 182.706 L 188.570 182.811 187.292 181.868 C 182.706 178.484,182.399 171.870,186.678 168.603 L 188.530 167.189 229.365 167.294 L 270.200 167.400 271.541 168.400 M289.800 208.297 C 285.277 208.572,275.601 209.755,274.200 210.204 C 273.320 210.486,271.880 210.841,271.000 210.992 C 269.173 211.306,265.203 212.564,263.340 213.421 C 262.646 213.739,261.864 214.000,261.600 214.000 C 261.086 214.000,255.481 216.551,252.200 218.279 C 243.933 222.631,232.427 232.090,227.600 238.503 C 225.561 241.212,225.978 241.155,207.000 241.318 C 188.665 241.477,187.942 241.551,185.888 243.492 C 182.086 247.086,182.086 252.914,185.888 256.508 C 187.816 258.330,189.025 258.496,201.887 258.696 C 215.549 258.910,214.991 258.753,213.794 262.056 C 212.267 266.273,211.254 269.516,211.001 271.000 C 210.851 271.880,210.484 273.320,210.184 274.200 C 209.412 276.468,208.353 286.849,208.376 291.919 C 208.413 300.149,209.785 308.792,212.263 316.400 C 215.107 325.135,215.195 325.600,213.996 325.600 C 213.294 325.600,213.197 325.715,213.548 326.137 C 213.793 326.432,213.875 326.792,213.730 326.937 C 213.585 327.082,213.767 327.200,214.133 327.200 C 214.592 327.200,214.802 327.542,214.806 328.300 C 214.813 329.548,215.316 330.534,215.845 330.334 C 216.040 330.260,216.257 330.895,216.327 331.744 C 216.419 332.871,216.663 333.344,217.227 333.491 C 217.652 333.602,218.000 333.914,218.000 334.185 C 218.000 334.455,218.350 334.993,218.777 335.380 C 219.205 335.767,219.610 336.559,219.677 337.142 C 219.749 337.761,220.049 338.200,220.400 338.200 C 220.736 338.200,221.061 338.639,221.138 339.200 C 221.304 340.396,221.953 341.276,222.445 340.972 C 222.640 340.851,222.800 341.140,222.800 341.614 C 222.800 342.138,223.113 342.557,223.600 342.684 C 224.043 342.800,224.400 343.230,224.400 343.647 C 224.400 344.141,224.684 344.400,225.224 344.400 C 225.710 344.400,225.938 344.576,225.781 344.831 C 225.635 345.067,225.849 345.599,226.257 346.011 C 227.533 347.300,227.959 347.907,227.742 348.125 C 227.626 348.241,227.907 348.536,228.366 348.782 C 228.825 349.027,229.200 349.498,229.200 349.827 C 229.200 350.156,229.573 350.564,230.030 350.733 C 230.486 350.901,230.846 351.166,230.830 351.320 C 230.739 352.175,230.858 352.400,231.400 352.400 C 231.730 352.400,232.000 352.570,232.000 352.777 C 232.000 352.985,232.530 353.468,233.178 353.851 C 233.826 354.234,234.266 354.694,234.155 354.873 C 234.044 355.053,234.162 355.200,234.419 355.200 C 234.675 355.200,235.419 355.650,236.073 356.200 C 236.727 356.750,237.518 357.200,237.831 357.200 C 238.144 357.200,238.400 357.470,238.400 357.800 C 238.400 358.133,238.756 358.400,239.200 358.400 C 239.733 358.400,240.000 358.667,240.000 359.200 C 240.000 359.717,240.267 360.000,240.753 360.000 C 241.170 360.000,241.600 360.357,241.716 360.800 C 241.866 361.374,242.262 361.600,243.116 361.600 C 243.970 361.600,244.366 361.826,244.516 362.400 C 244.641 362.879,245.062 363.200,245.563 363.200 C 246.023 363.200,246.400 363.451,246.400 363.757 C 246.400 364.364,247.239 364.800,248.406 364.800 C 248.813 364.800,249.260 365.160,249.400 365.600 C 249.589 366.195,250.005 366.400,251.027 366.400 C 252.133 366.400,252.400 366.555,252.400 367.200 C 252.400 367.863,252.667 368.000,253.953 368.000 C 255.170 368.000,255.552 368.173,255.716 368.800 C 255.876 369.413,256.262 369.600,257.363 369.600 C 258.320 369.600,258.800 369.785,258.800 370.153 C 258.800 370.784,260.000 371.187,261.900 371.195 C 262.738 371.198,263.200 371.397,263.200 371.753 C 263.200 372.390,264.403 372.787,266.356 372.795 C 267.102 372.798,267.912 373.066,268.156 373.392 C 268.439 373.769,269.611 374.065,271.386 374.207 C 272.952 374.333,274.449 374.683,274.807 375.006 C 275.774 375.881,308.400 375.867,308.400 374.991 C 308.400 374.563,308.869 374.399,310.100 374.396 C 312.827 374.389,314.800 373.949,314.800 373.348 C 314.800 372.951,315.402 372.800,316.986 372.800 C 318.762 372.800,319.252 372.650,319.600 372.000 C 319.932 371.380,320.438 371.200,321.852 371.200 C 323.338 371.200,323.713 371.052,323.884 370.400 C 324.048 369.773,324.430 369.600,325.647 369.600 C 326.933 369.600,327.200 369.463,327.200 368.800 C 327.200 368.139,327.467 368.000,328.738 368.000 C 329.768 368.000,330.515 367.736,331.000 367.200 C 331.398 366.760,332.146 366.400,332.662 366.400 C 333.324 366.400,333.600 366.171,333.600 365.624 C 333.600 365.016,333.925 364.821,335.100 364.724 C 336.111 364.640,336.600 364.405,336.600 364.000 C 336.600 363.643,337.045 363.349,337.700 363.273 C 338.305 363.204,338.800 362.968,338.800 362.750 C 338.800 362.531,338.980 362.464,339.200 362.600 C 339.420 362.736,339.600 362.567,339.600 362.224 C 339.600 361.867,339.942 361.600,340.400 361.600 C 340.933 361.600,341.200 361.333,341.200 360.800 C 341.200 360.267,341.467 360.000,342.000 360.000 C 342.525 360.000,342.800 359.733,342.800 359.224 C 342.800 358.616,343.125 358.421,344.300 358.324 C 345.311 358.240,345.800 358.005,345.800 357.600 C 345.800 357.270,346.205 356.942,346.700 356.872 C 347.278 356.790,347.600 356.468,347.600 355.972 C 347.600 355.547,347.735 355.221,347.900 355.247 C 348.707 355.375,349.200 355.147,349.200 354.647 C 349.200 354.342,349.560 353.999,350.000 353.884 C 350.440 353.769,350.800 353.388,350.800 353.037 C 350.800 352.687,351.087 352.400,351.437 352.400 C 351.788 352.400,352.169 352.040,352.284 351.600 C 352.399 351.160,352.759 350.800,353.084 350.800 C 353.409 350.800,353.765 350.457,353.874 350.037 C 353.984 349.617,354.441 349.178,354.889 349.061 C 355.427 348.920,355.623 348.636,355.465 348.224 C 355.298 347.789,355.464 347.600,356.013 347.600 C 356.517 347.600,356.800 347.329,356.800 346.847 C 356.800 346.430,357.157 346.000,357.600 345.884 C 358.213 345.724,358.400 345.338,358.400 344.237 C 358.400 343.067,358.548 342.800,359.200 342.800 C 359.733 342.800,360.000 342.533,360.000 342.000 C 360.000 341.467,360.267 341.200,360.800 341.200 C 361.333 341.200,361.600 340.933,361.600 340.400 C 361.600 339.960,361.867 339.600,362.192 339.600 C 362.518 339.600,362.893 339.105,363.026 338.500 C 363.437 336.625,363.562 336.389,364.089 336.496 C 364.415 336.562,364.645 336.058,364.724 335.100 C 364.821 333.925,365.016 333.600,365.624 333.600 C 366.172 333.600,366.415 333.306,366.450 332.600 C 366.526 331.075,366.571 330.893,366.964 330.533 C 367.181 330.335,367.191 330.442,366.987 330.800 C 366.693 331.317,366.740 331.324,367.323 330.851 C 367.695 330.549,368.000 329.786,368.000 329.154 C 368.000 328.440,368.302 327.818,368.800 327.507 C 369.362 327.156,369.600 326.574,369.600 325.550 C 369.600 324.430,369.785 324.045,370.400 323.884 C 371.052 323.713,371.200 323.338,371.200 321.852 C 371.200 320.438,371.380 319.932,372.000 319.600 C 372.650 319.252,372.800 318.762,372.800 316.986 C 372.800 315.402,372.951 314.800,373.348 314.800 C 373.949 314.800,374.389 312.827,374.396 310.100 C 374.399 308.847,374.560 308.400,375.008 308.400 C 375.891 308.400,375.882 275.774,374.999 274.799 C 374.688 274.455,374.343 273.087,374.232 271.760 C 374.010 269.093,373.698 268.000,373.157 268.000 C 372.961 268.000,372.800 267.205,372.800 266.233 C 372.800 264.086,372.496 263.200,371.757 263.200 C 371.376 263.200,371.200 262.706,371.200 261.633 C 371.200 259.678,370.877 258.800,370.157 258.800 C 369.774 258.800,369.600 258.301,369.600 257.200 C 369.600 255.867,369.467 255.600,368.800 255.600 C 368.133 255.600,368.000 255.333,368.000 254.000 C 368.000 252.667,367.867 252.400,367.200 252.400 C 366.548 252.400,366.400 252.133,366.400 250.963 C 366.400 249.862,366.213 249.476,365.600 249.316 C 365.026 249.166,364.800 248.770,364.800 247.916 C 364.800 247.062,364.574 246.666,364.000 246.516 C 363.540 246.396,363.200 245.970,363.200 245.516 C 363.200 245.062,362.860 244.636,362.400 244.516 C 361.799 244.359,361.600 243.970,361.600 242.953 C 361.600 242.209,361.465 241.621,361.300 241.647 C 360.416 241.787,360.000 241.516,360.000 240.800 C 360.000 240.267,359.733 240.000,359.200 240.000 C 358.667 240.000,358.400 239.733,358.400 239.200 C 358.400 238.760,358.144 238.400,357.832 238.400 C 357.519 238.400,357.148 237.873,357.006 237.229 C 356.865 236.586,356.295 235.761,355.740 235.397 C 355.185 235.034,354.817 234.649,354.923 234.543 C 355.198 234.269,353.176 232.180,352.752 232.300 C 352.558 232.355,352.400 232.040,352.400 231.600 C 352.400 230.884,351.984 230.613,351.100 230.753 C 350.935 230.779,350.800 230.602,350.800 230.360 C 350.800 229.876,348.712 227.854,348.063 227.709 C 347.838 227.659,347.184 227.148,346.609 226.573 C 346.027 225.990,345.307 225.627,344.982 225.751 C 344.594 225.900,344.400 225.712,344.400 225.187 C 344.400 224.667,344.129 224.400,343.600 224.400 C 343.067 224.400,342.800 224.133,342.800 223.600 C 342.800 223.008,342.533 222.800,341.776 222.800 C 341.213 222.800,340.851 222.640,340.972 222.445 C 341.276 221.953,340.396 221.304,339.200 221.138 C 338.650 221.062,338.200 220.790,338.200 220.533 C 338.200 219.862,337.922 219.670,336.708 219.508 C 336.115 219.429,335.488 219.208,335.315 219.018 C 335.138 218.824,335.263 218.821,335.600 219.013 C 336.117 219.307,336.124 219.260,335.651 218.677 C 335.349 218.305,334.785 218.000,334.398 218.000 C 334.010 218.000,333.599 217.640,333.484 217.200 C 333.325 216.594,332.938 216.400,331.884 216.400 C 330.846 216.400,330.442 216.204,330.291 215.627 C 330.144 215.063,329.671 214.819,328.544 214.727 C 327.659 214.654,327.037 214.405,327.086 214.143 C 327.133 213.892,326.818 213.593,326.386 213.480 C 325.808 213.329,325.600 213.476,325.600 214.037 C 325.600 215.130,323.424 214.825,319.800 213.225 C 319.012 212.877,313.920 211.363,310.400 210.430 C 306.910 209.505,293.232 208.089,289.800 208.297 M223.553 242.544 C 223.903 242.965,223.608 243.679,222.235 245.727 C 221.261 247.178,220.348 248.734,220.205 249.183 C 220.063 249.632,219.805 250.000,219.632 250.000 C 219.460 250.000,218.724 251.305,217.997 252.900 C 217.270 254.495,216.331 256.295,215.910 256.900 L 215.146 258.000 202.873 257.990 C 189.283 257.980,188.094 257.836,186.167 255.968 C 181.971 251.901,183.612 243.640,188.863 242.398 C 191.404 241.797,223.044 241.930,223.553 242.544 M329.416 268.055 C 332.990 270.473,334.387 276.430,332.078 279.410 C 330.229 281.796,288.955 322.917,287.427 323.895 C 285.166 325.342,281.639 325.348,279.364 323.907 C 276.942 322.373,251.742 297.046,250.799 295.198 C 248.678 291.040,250.797 285.973,255.500 283.957 C 260.022 282.019,261.650 282.975,272.600 293.996 C 277.440 298.867,281.911 303.224,282.535 303.678 L 283.669 304.504 302.335 285.888 C 314.273 273.981,321.360 267.198,322.000 267.067 C 324.282 266.600,327.996 267.094,329.416 268.055 " stroke="none" fill="#54c5e9" fill-rule="evenodd"></path><path id="path1" d="M54.092 25.021 C 53.879 25.402,52.983 25.714,51.772 25.829 C 50.688 25.932,49.600 26.283,49.356 26.608 C 49.112 26.934,48.527 27.200,48.056 27.200 C 47.585 27.200,46.840 27.560,46.400 28.000 C 45.960 28.440,45.330 28.800,45.000 28.800 C 44.670 28.800,44.400 28.974,44.400 29.187 C 44.400 29.401,44.099 29.459,43.731 29.318 C 43.223 29.123,43.123 29.223,43.318 29.731 C 43.515 30.245,43.346 30.400,42.587 30.400 C 41.886 30.400,41.600 30.619,41.600 31.155 C 41.600 31.701,41.214 31.983,40.211 32.172 C 39.447 32.315,38.682 32.664,38.511 32.946 C 38.340 33.229,37.874 33.580,37.475 33.727 C 37.076 33.874,36.869 34.188,37.015 34.424 C 37.163 34.664,36.896 34.954,36.410 35.082 C 35.931 35.207,35.373 35.746,35.170 36.279 C 34.967 36.812,34.620 37.136,34.398 36.999 C 34.176 36.862,33.874 37.062,33.728 37.444 C 33.581 37.826,33.132 38.468,32.731 38.869 C 32.329 39.271,32.000 40.050,32.000 40.600 C 32.000 41.321,31.785 41.600,31.228 41.600 C 30.734 41.600,30.406 41.925,30.318 42.500 C 30.243 42.995,29.974 43.359,29.720 43.310 C 29.467 43.260,29.138 43.774,28.989 44.451 C 28.840 45.128,28.377 46.023,27.959 46.441 C 27.542 46.858,27.200 47.585,27.200 48.056 C 27.200 48.527,26.934 49.112,26.608 49.356 C 26.283 49.600,25.932 50.688,25.829 51.772 C 25.714 52.983,25.402 53.879,25.021 54.092 C 24.058 54.631,24.072 295.377,25.035 295.916 C 25.603 296.234,25.971 297.644,26.027 299.721 C 26.038 300.118,26.306 300.543,26.623 300.664 C 26.940 300.786,27.200 301.316,27.200 301.843 C 27.200 302.369,27.542 303.142,27.959 303.559 C 28.377 303.977,28.842 304.878,28.992 305.563 C 29.142 306.247,29.431 306.705,29.633 306.579 C 29.836 306.454,30.177 306.813,30.391 307.376 C 30.605 307.939,31.035 308.400,31.346 308.400 C 31.674 308.400,32.020 308.982,32.172 309.789 C 32.315 310.553,32.664 311.318,32.946 311.489 C 33.229 311.660,33.583 312.134,33.734 312.542 C 33.898 312.989,34.243 313.192,34.603 313.054 C 35.013 312.897,35.200 313.083,35.200 313.650 C 35.200 314.125,35.523 314.559,35.963 314.674 C 36.383 314.784,36.822 315.241,36.939 315.689 C 37.073 316.200,37.370 316.420,37.737 316.280 C 38.093 316.143,38.397 316.346,38.516 316.801 C 38.641 317.280,39.228 317.644,40.156 317.818 C 41.186 318.011,41.600 318.298,41.600 318.817 C 41.600 319.264,41.947 319.597,42.500 319.682 C 42.995 319.757,43.359 320.026,43.310 320.280 C 43.260 320.533,43.774 320.862,44.451 321.011 C 45.128 321.160,46.023 321.623,46.441 322.041 C 46.858 322.458,47.585 322.800,48.056 322.800 C 48.527 322.800,49.112 323.066,49.356 323.392 C 49.600 323.717,50.688 324.068,51.772 324.171 C 52.983 324.286,53.879 324.598,54.092 324.979 C 54.405 325.537,62.578 325.600,134.665 325.600 L 214.891 325.600 214.678 324.500 C 214.412 323.123,213.983 321.682,212.263 316.400 C 209.785 308.792,208.413 300.149,208.376 291.919 C 208.353 286.849,209.412 276.468,210.184 274.200 C 210.484 273.320,210.851 271.880,211.001 271.000 C 211.254 269.516,212.267 266.273,213.794 262.056 C 214.991 258.753,215.549 258.910,201.887 258.696 C 189.025 258.496,187.816 258.330,185.888 256.508 C 182.086 252.914,182.086 247.086,185.888 243.492 C 187.942 241.551,188.665 241.477,207.000 241.318 C 225.978 241.155,225.561 241.212,227.600 238.503 C 232.427 232.090,243.933 222.631,252.200 218.279 C 255.481 216.551,261.086 214.000,261.600 214.000 C 261.864 214.000,262.646 213.739,263.340 213.421 C 265.195 212.568,269.167 211.307,271.000 210.989 C 271.880 210.836,273.410 210.467,274.400 210.170 C 281.899 207.917,301.461 208.058,310.400 210.430 C 313.933 211.367,319.013 212.878,319.800 213.225 C 321.348 213.909,324.208 214.788,324.900 214.794 C 325.933 214.803,325.997 54.662,324.965 54.084 C 324.397 53.766,324.029 52.356,323.973 50.279 C 323.962 49.882,323.694 49.457,323.377 49.336 C 323.060 49.214,322.800 48.684,322.800 48.157 C 322.800 47.631,322.440 46.840,322.000 46.400 C 321.560 45.960,321.200 45.330,321.200 45.000 C 321.200 44.670,321.026 44.400,320.813 44.400 C 320.599 44.400,320.541 44.099,320.682 43.731 C 320.877 43.223,320.777 43.123,320.269 43.318 C 319.755 43.515,319.600 43.346,319.600 42.587 C 319.600 41.886,319.381 41.600,318.845 41.600 C 318.296 41.600,318.016 41.211,317.822 40.179 C 317.676 39.397,317.314 38.665,317.017 38.551 C 316.721 38.438,316.383 37.979,316.266 37.532 C 316.149 37.085,315.861 36.838,315.626 36.984 C 315.388 37.131,315.026 36.793,314.809 36.224 C 314.595 35.661,314.166 35.200,313.857 35.200 C 313.547 35.200,313.193 34.817,313.071 34.348 C 312.922 33.779,312.641 33.576,312.224 33.735 C 311.838 33.884,311.600 33.757,311.600 33.402 C 311.600 32.719,310.382 32.000,309.226 32.000 C 308.753 32.000,308.400 31.740,308.400 31.390 C 308.400 31.055,307.939 30.605,307.376 30.391 C 306.813 30.177,306.454 29.836,306.579 29.633 C 306.705 29.431,306.247 29.142,305.563 28.992 C 304.878 28.842,303.977 28.377,303.559 27.959 C 303.142 27.542,302.369 27.200,301.843 27.200 C 301.316 27.200,300.786 26.940,300.664 26.623 C 300.543 26.306,300.118 26.038,299.721 26.027 C 297.644 25.971,296.234 25.603,295.916 25.035 C 295.377 24.072,54.631 24.058,54.092 25.021 M145.400 76.062 C 152.444 79.661,151.417 86.763,142.944 93.028 C 141.371 94.192,139.749 95.486,139.342 95.904 C 138.934 96.322,137.160 97.754,135.400 99.086 C 133.640 100.418,131.660 101.985,131.000 102.568 C 130.340 103.151,128.810 104.387,127.600 105.313 C 126.390 106.240,125.310 107.100,125.200 107.226 C 124.574 107.939,106.276 122.391,104.612 123.487 C 102.084 125.152,98.597 125.338,96.123 123.940 C 94.021 122.753,77.416 106.212,76.120 104.015 C 72.983 98.697,76.970 91.962,83.277 91.926 C 86.735 91.906,86.858 91.986,93.841 98.857 C 97.676 102.630,100.182 104.800,100.704 104.800 C 101.400 104.800,104.817 102.362,106.761 100.479 C 107.070 100.180,108.330 99.200,109.561 98.302 C 110.792 97.403,112.520 96.016,113.400 95.219 C 114.280 94.423,116.080 92.988,117.400 92.032 C 118.720 91.075,119.980 90.076,120.200 89.811 C 120.420 89.547,122.180 88.126,124.112 86.653 C 126.043 85.181,127.954 83.646,128.359 83.241 C 128.763 82.837,130.153 81.717,131.447 80.753 C 132.741 79.789,134.160 78.666,134.600 78.257 C 138.152 74.959,141.792 74.219,145.400 76.062 M268.000 91.617 C 277.938 93.186,277.764 106.891,267.787 108.407 C 263.664 109.034,190.294 108.744,188.430 108.094 C 180.977 105.494,181.642 92.819,189.283 91.832 C 190.227 91.710,191.450 91.543,192.000 91.460 C 194.472 91.087,265.574 91.234,268.000 91.617 M145.692 151.204 C 148.553 153.000,149.801 155.191,149.794 158.400 C 149.784 162.478,149.411 162.881,135.021 174.375 C 127.969 180.007,121.840 184.914,121.400 185.279 C 120.960 185.644,119.160 187.070,117.400 188.447 C 115.640 189.824,114.020 191.160,113.800 191.415 C 113.580 191.670,112.050 192.882,110.400 194.107 C 108.750 195.333,107.040 196.670,106.600 197.079 C 103.369 200.082,99.343 200.821,96.210 198.985 C 94.135 197.769,77.521 181.277,76.079 179.002 C 73.079 174.268,76.662 167.528,82.499 166.926 C 86.210 166.543,87.097 167.077,94.074 173.897 C 98.565 178.287,100.590 180.013,101.044 179.838 C 101.396 179.703,109.507 173.339,119.067 165.696 C 140.763 148.352,140.971 148.239,145.692 151.204 M269.127 166.818 C 277.426 168.732,277.273 181.421,268.929 183.209 C 267.654 183.483,253.688 183.585,227.739 183.512 L 188.478 183.400 186.739 182.163 C 180.858 177.979,182.392 168.089,189.126 166.779 C 191.477 166.321,267.134 166.358,269.127 166.818 M145.006 225.641 C 146.871 226.625,148.800 228.346,148.800 229.026 C 148.800 229.288,149.070 229.726,149.400 230.000 C 150.474 230.891,150.200 235.317,148.937 237.472 C 147.997 239.076,132.726 251.747,118.172 263.000 C 117.034 263.880,115.200 265.370,114.097 266.311 C 112.993 267.252,111.305 268.582,110.345 269.268 C 109.385 269.953,108.307 270.804,107.949 271.157 C 103.969 275.088,99.244 276.173,95.800 273.946 C 93.055 272.171,76.674 255.464,75.631 253.376 C 73.270 248.648,76.746 242.464,82.144 241.790 C 86.140 241.290,87.011 241.793,94.003 248.627 C 97.476 252.022,100.513 254.800,100.751 254.800 C 100.990 254.800,106.543 250.519,113.092 245.287 C 119.642 240.055,127.616 233.686,130.814 231.134 C 139.220 224.425,141.228 223.648,145.006 225.641 M322.000 267.067 C 321.360 267.198,314.273 273.981,302.335 285.888 L 283.669 304.504 282.535 303.678 C 281.911 303.224,277.440 298.867,272.600 293.996 C 260.756 282.075,257.874 280.866,252.719 285.657 C 247.000 290.974,248.169 293.338,264.663 309.817 C 279.392 324.533,279.912 324.952,283.427 324.922 C 287.013 324.892,286.935 324.960,310.078 301.744 C 335.073 276.670,333.000 279.073,333.000 275.176 C 333.000 269.211,328.332 265.770,322.000 267.067 " stroke="none" fill="#f4f4f4" fill-rule="evenodd"></path><path id="path2" d="M188.863 92.393 C 181.444 94.174,182.435 106.878,190.064 107.788 C 196.530 108.560,269.925 107.812,271.071 106.963 C 275.800 103.460,275.896 96.337,271.257 93.158 L 269.859 92.200 230.029 92.136 C 208.123 92.101,189.599 92.217,188.863 92.393 M186.678 168.603 C 182.399 171.870,182.706 178.484,187.292 181.868 L 188.570 182.811 229.385 182.706 L 270.200 182.600 271.541 181.600 C 273.343 180.256,274.800 177.305,274.800 175.000 C 274.800 172.695,273.343 169.744,271.541 168.400 L 270.200 167.400 229.365 167.294 L 188.530 167.189 186.678 168.603 M188.863 242.398 C 183.612 243.640,181.971 251.901,186.167 255.968 C 188.094 257.836,189.283 257.980,202.873 257.990 L 215.146 258.000 215.910 256.900 C 216.331 256.295,217.270 254.495,217.997 252.900 C 218.724 251.305,219.460 250.000,219.632 250.000 C 219.805 250.000,220.063 249.632,220.205 249.183 C 220.348 248.734,221.261 247.178,222.235 245.727 C 223.608 243.679,223.903 242.965,223.553 242.544 C 223.044 241.930,191.404 241.797,188.863 242.398 " stroke="none" fill="#445c6c" fill-rule="evenodd"></path><path id="path3" d="M138.254 226.028 C 137.008 226.704,119.128 240.696,118.400 241.566 C 118.290 241.697,117.141 242.592,115.847 243.555 C 114.553 244.518,113.163 245.637,112.759 246.041 C 112.354 246.446,110.533 247.916,108.712 249.309 C 106.890 250.701,104.860 252.345,104.200 252.961 C 100.913 256.028,100.661 255.943,94.352 249.637 C 87.882 243.170,87.016 242.481,84.959 242.173 C 78.419 241.192,72.908 248.236,76.057 253.553 C 77.511 256.008,94.367 272.737,96.487 273.828 C 98.828 275.034,101.095 275.073,103.316 273.945 C 104.573 273.307,124.117 258.005,133.014 250.694 C 133.446 250.338,135.330 248.839,137.200 247.361 C 139.070 245.884,140.690 244.568,140.800 244.438 C 140.910 244.307,142.170 243.308,143.600 242.219 C 148.355 238.596,149.609 236.721,149.583 233.277 C 149.538 227.422,143.183 223.356,138.254 226.028 " stroke="none" fill="#fc755d" fill-rule="evenodd"></path><path id="path4" d="M138.119 150.900 C 137.201 151.395,128.628 158.053,119.067 165.696 C 109.507 173.339,101.396 179.703,101.044 179.838 C 100.590 180.013,98.565 178.287,94.074 173.897 C 87.097 167.077,86.210 166.543,82.499 166.926 C 76.662 167.528,73.079 174.268,76.079 179.002 C 77.521 181.277,94.135 197.769,96.210 198.985 C 99.343 200.821,103.369 200.082,106.600 197.079 C 107.040 196.670,108.750 195.333,110.400 194.107 C 112.050 192.882,113.580 191.670,113.800 191.415 C 114.020 191.160,115.640 189.824,117.400 188.447 C 119.160 187.070,120.960 185.644,121.400 185.279 C 121.840 184.914,127.969 180.007,135.021 174.375 C 149.411 162.881,149.784 162.478,149.794 158.400 C 149.809 152.204,143.370 148.068,138.119 150.900 M138.208 225.647 C 137.339 226.113,134.012 228.582,130.814 231.134 C 127.616 233.686,119.642 240.055,113.092 245.287 C 106.543 250.519,100.990 254.800,100.751 254.800 C 100.513 254.800,97.478 252.025,94.008 248.632 C 87.410 242.183,86.426 241.547,83.200 241.649 C 81.661 241.697,82.048 241.824,84.857 242.193 C 87.034 242.478,87.759 243.047,94.352 249.637 C 100.661 255.943,100.913 256.028,104.200 252.961 C 104.860 252.345,106.890 250.701,108.712 249.309 C 110.533 247.916,112.354 246.446,112.759 246.041 C 113.163 245.637,114.553 244.518,115.847 243.555 C 117.141 242.592,118.290 241.697,118.400 241.566 C 119.261 240.538,137.091 226.668,138.429 225.985 C 143.412 223.443,149.538 227.449,149.583 233.277 C 149.609 236.719,148.357 238.592,143.603 242.219 C 142.175 243.308,140.375 244.818,139.603 245.573 C 137.977 247.164,138.374 246.875,143.850 242.487 C 148.887 238.450,150.000 236.748,150.000 233.078 C 150.000 231.273,149.820 230.348,149.400 230.000 C 149.070 229.726,148.800 229.288,148.800 229.026 C 148.800 226.179,141.538 223.862,138.208 225.647 M78.582 243.214 C 76.943 244.517,75.195 246.829,75.208 247.679 C 75.212 247.965,75.727 247.385,76.353 246.389 C 77.538 244.502,79.662 242.635,81.013 242.293 C 81.752 242.105,81.748 242.090,80.955 242.046 C 80.490 242.021,79.423 242.546,78.582 243.214 M135.800 248.434 C 134.700 249.318,133.514 250.275,133.165 250.561 C 132.815 250.847,127.505 255.092,121.365 259.994 C 115.224 264.896,109.840 269.264,109.400 269.700 C 108.252 270.840,111.720 268.337,114.097 266.311 C 115.200 265.370,117.038 263.880,118.181 263.000 C 122.173 259.926,138.000 247.116,138.000 246.958 C 138.000 246.687,137.854 246.785,135.800 248.434 M74.914 250.200 C 74.917 251.300,74.995 251.703,75.087 251.095 C 75.179 250.486,75.177 249.586,75.082 249.095 C 74.987 248.603,74.911 249.100,74.914 250.200 M75.208 252.508 C 75.156 254.617,95.585 274.856,97.692 274.782 C 97.971 274.773,97.480 274.395,96.600 273.944 C 94.649 272.943,77.980 256.510,76.370 254.000 C 75.735 253.010,75.212 252.339,75.208 252.508 M106.800 271.623 C 106.030 272.284,104.590 273.261,103.600 273.794 C 102.610 274.327,102.015 274.771,102.277 274.781 C 102.863 274.804,105.520 273.277,106.575 272.310 C 107.002 271.920,107.478 271.600,107.633 271.600 C 107.788 271.600,108.018 271.330,108.145 271.000 C 108.446 270.215,108.434 270.221,106.800 271.623 M99.100 275.082 C 99.595 275.178,100.405 275.178,100.900 275.082 C 101.395 274.987,100.990 274.909,100.000 274.909 C 99.010 274.909,98.605 274.987,99.100 275.082 " stroke="none" fill="#fcd45e" fill-rule="evenodd"></path></g></svg>