<?xml version="1.0" encoding="utf-8"?>
<!-- Generator: Adobe Illustrator 27.0.1, SVG Export Plug-In . SVG Version: 6.00 Build 0)  -->
<svg version="1.1" id="Layer_1" xmlns="http://www.w3.org/2000/svg" xmlns:xlink="http://www.w3.org/1999/xlink" x="0px" y="0px"
	 viewBox="0 0 100 100" style="enable-background:new 0 0 100 100;" xml:space="preserve">
<style type="text/css">
	.st0{fill:#4FB5DC;}
	.st1{display:none;fill:#5271FF;}
</style>
<g>
	<path class="st0" d="M50.3,77L50.3,77c-3.4,0-6.2-2.8-6.2-6.2V31.2c0-3.4,2.8-6.2,6.2-6.2l0,0c3.4,0,6.2,2.8,6.2,6.2v39.5
		C56.5,74.2,53.7,77,50.3,77z"/>
</g>
<g>
	<path class="st0" d="M76,50.7L76,50.7c0,3.4-2.8,6.2-6.2,6.2H30.2c-3.4,0-6.2-2.8-6.2-6.2l0,0c0-3.4,2.8-6.2,6.2-6.2h39.5
		C73.2,44.5,76,47.3,76,50.7z"/>
</g>
<path class="st1" d="M50,4C24.6,4,4,24.6,4,50s20.6,46,46,46s46-20.6,46-46S75.4,4,50,4z M50,90c-22.1,0-40-17.9-40-40
	s17.9-40,40-40s40,17.9,40,40S72.1,90,50,90z"/>
</svg>
