<?xml version="1.0" encoding="utf-8"?>
<!-- Generator: Adobe Illustrator 27.0.1, SVG Export Plug-In . SVG Version: 6.00 Build 0)  -->
<svg version="1.1" id="Layer_1" xmlns="http://www.w3.org/2000/svg" xmlns:xlink="http://www.w3.org/1999/xlink" x="0px" y="0px"
	 viewBox="0 0 100 100" style="enable-background:new 0 0 100 100;" xml:space="preserve">
<style type="text/css">
	.st0{fill:#5271FF;}
	.st1{display:none;fill:#5271FF;}
</style>
<g>
	<path class="st0" d="M50.27,77L50.27,77c-3.43,0-6.23-2.8-6.23-6.23V31.23c0-3.43,2.8-6.23,6.23-6.23h0c3.43,0,6.23,2.8,6.23,6.23
		v39.54C56.5,74.2,53.7,77,50.27,77z"/>
</g>
<g>
	<path class="st0" d="M76,50.73L76,50.73c0,3.43-2.8,6.23-6.23,6.23l-39.54,0c-3.43,0-6.23-2.8-6.23-6.23v0
		c0-3.43,2.8-6.23,6.23-6.23h39.54C73.2,44.5,76,47.3,76,50.73z"/>
</g>
<path class="st1" d="M50,4C24.59,4,4,24.59,4,50s20.59,46,46,46s46-20.59,46-46S75.41,4,50,4z M50,90c-22.09,0-40-17.91-40-40
	c0-22.09,17.91-40,40-40s40,17.91,40,40C90,72.09,72.09,90,50,90z"/>
</svg>
