<svg xmlns="http://www.w3.org/2000/svg" width="256" height="256" viewBox="0 0 256 256" version="1.1"><path d="M 104.500 9.978 C 80.302 15.213, 60.089 26.048, 43.146 42.865 C 25.666 60.214, 14.139 82.328, 9.455 107.500 C 6.986 120.763, 7.840 144.069, 11.270 157.074 C 22.867 201.037, 54.632 232.824, 98.926 244.791 C 107.685 247.157, 110.160 247.378, 128 247.378 C 145.840 247.378, 148.315 247.157, 157.074 244.791 C 201.383 232.820, 232.820 201.383, 244.791 157.074 C 247.157 148.315, 247.378 145.840, 247.378 128 C 247.378 110.160, 247.157 107.685, 244.791 98.926 C 232.818 54.607, 201.113 22.921, 157.074 11.260 C 143.652 7.707, 117.902 7.078, 104.500 9.978 M 123.843 56.943 C 116.432 59.269, 111.175 65.020, 110.361 71.689 C 110.106 73.785, 111.209 90.674, 112.813 109.219 C 115.904 144.955, 116.148 146.085, 121.547 149.622 C 124.779 151.740, 131.221 151.740, 134.453 149.622 C 139.852 146.085, 140.096 144.955, 143.187 109.219 C 144.791 90.674, 145.894 73.785, 145.639 71.689 C 144.462 62.040, 132.781 54.138, 123.843 56.943 M 123.594 169.041 C 119.396 170.297, 114.123 175.828, 112.942 180.215 C 110.150 190.584, 120.251 201.357, 130.894 199.360 C 135.617 198.474, 141.737 192.690, 143.029 187.892 C 145.105 180.182, 139.872 171.258, 131.942 168.983 C 128.012 167.856, 127.545 167.859, 123.594 169.041" stroke="none" fill="#ff6474" fill-rule="evenodd"/><path d="" stroke="none" fill="#fc6474" fill-rule="evenodd"/></svg>