<svg id="svg" version="1.1" xmlns="http://www.w3.org/2000/svg" xmlns:xlink="http://www.w3.org/1999/xlink" width="400" height="400" viewBox="0, 0, 400,400"><g id="svgg"><path id="path0" d="M198.959 253.300 C 191.455 261.016,184.692 271.670,180.996 281.600 C 180.627 282.590,180.174 283.760,179.989 284.200 C 179.804 284.640,179.462 285.630,179.230 286.400 C 178.997 287.170,178.549 288.619,178.235 289.619 C 173.575 304.468,174.105 322.590,179.691 339.378 C 185.942 358.167,200.208 376.640,216.113 386.542 C 216.725 386.923,217.119 387.407,216.989 387.618 C 216.840 387.859,226.699 388.000,243.800 388.000 C 261.730 388.000,270.764 387.865,270.600 387.600 C 270.397 387.271,273.564 386.942,274.900 387.153 C 275.065 387.179,275.200 387.020,275.200 386.800 C 275.200 386.580,275.524 386.400,275.920 386.400 C 276.316 386.400,276.824 386.216,277.050 385.990 C 277.275 385.765,278.121 385.556,278.930 385.526 C 279.738 385.495,280.400 385.320,280.400 385.135 C 280.400 384.951,280.670 384.800,281.000 384.800 C 281.330 384.800,281.603 384.575,281.606 384.300 C 281.610 383.967,281.742 384.000,282.000 384.400 C 282.258 384.800,282.390 384.833,282.394 384.500 C 282.397 384.225,282.687 384.000,283.037 384.000 C 283.387 384.000,284.131 383.640,284.691 383.200 C 285.250 382.760,285.926 382.400,286.192 382.400 C 286.458 382.400,287.002 382.040,287.400 381.600 C 287.798 381.160,288.501 380.794,288.962 380.787 C 289.791 380.775,291.703 379.624,290.976 379.575 C 290.769 379.561,291.005 379.387,291.500 379.188 C 291.995 378.989,292.400 378.539,292.400 378.189 C 292.400 377.839,292.568 377.657,292.774 377.784 C 292.980 377.911,293.602 377.562,294.156 377.008 C 294.710 376.453,295.382 376.000,295.648 376.000 C 295.915 376.000,296.025 375.892,295.893 375.760 C 295.761 375.628,296.265 374.908,297.013 374.160 C 298.322 372.851,299.112 372.372,298.603 373.195 C 298.465 373.419,298.618 373.491,298.954 373.362 C 299.282 373.237,299.451 372.877,299.330 372.562 C 299.169 372.142,299.308 372.065,299.855 372.270 C 300.505 372.514,300.532 372.466,300.064 371.891 C 299.597 371.316,299.631 371.252,300.333 371.387 C 300.789 371.475,301.235 371.286,301.364 370.950 C 301.506 370.580,301.424 370.462,301.144 370.635 C 300.872 370.803,300.775 370.693,300.898 370.356 C 301.009 370.050,301.302 369.845,301.550 369.900 C 301.797 369.955,302.000 369.764,302.000 369.475 C 302.000 369.187,302.349 368.576,302.776 368.118 C 303.203 367.660,303.457 367.191,303.342 367.075 C 303.226 366.959,303.512 366.661,303.977 366.412 C 304.442 366.163,304.717 365.789,304.588 365.580 C 304.458 365.371,304.554 365.200,304.800 365.200 C 305.046 365.200,305.136 365.020,305.000 364.800 C 304.864 364.580,304.945 364.400,305.180 364.400 C 305.414 364.400,305.895 363.680,306.247 362.800 C 306.599 361.920,307.059 361.200,307.270 361.200 C 307.481 361.200,307.540 360.840,307.400 360.400 C 307.163 359.654,307.523 359.388,308.530 359.563 C 308.712 359.594,308.745 359.256,308.603 358.810 C 308.462 358.365,308.519 358.000,308.730 358.000 C 308.942 358.000,309.222 357.721,309.353 357.379 C 309.514 356.960,309.430 356.852,309.095 357.048 C 308.823 357.207,308.915 356.977,309.301 356.536 C 309.686 356.096,309.892 355.625,309.757 355.491 C 309.623 355.356,309.905 354.696,310.384 354.023 C 310.863 353.350,311.050 352.800,310.800 352.800 C 310.550 352.800,310.729 352.261,311.200 351.600 C 311.670 350.940,311.862 350.400,311.627 350.400 C 311.392 350.400,311.200 350.040,311.200 349.600 C 311.200 349.160,311.380 348.800,311.600 348.800 C 311.820 348.800,312.000 347.990,312.000 347.000 C 312.000 346.010,312.180 345.200,312.400 345.200 C 312.620 345.200,312.800 344.210,312.800 343.000 C 312.800 341.750,312.979 340.800,313.214 340.800 C 313.500 340.800,313.500 340.560,313.214 340.026 C 312.986 339.601,312.800 337.081,312.800 334.426 C 312.800 331.475,312.645 329.600,312.400 329.600 C 312.180 329.600,312.000 328.801,312.000 327.824 C 312.000 326.847,311.820 325.936,311.599 325.799 C 311.335 325.636,311.348 325.271,311.639 324.727 C 311.959 324.130,311.959 323.978,311.640 324.175 C 311.392 324.329,311.200 324.175,311.200 323.824 C 311.200 323.481,311.020 323.200,310.800 323.200 C 310.580 323.200,310.400 322.379,310.400 321.376 C 310.400 320.263,310.244 319.649,310.000 319.800 C 309.780 319.936,309.600 319.677,309.600 319.224 C 309.600 318.771,309.420 318.400,309.200 318.400 C 308.980 318.400,308.800 318.209,308.800 317.976 C 308.800 317.743,309.025 317.667,309.300 317.807 C 309.575 317.947,309.375 317.687,308.856 317.230 C 308.336 316.774,308.139 316.400,308.417 316.400 C 308.697 316.400,308.539 316.067,308.061 315.653 C 307.515 315.180,307.200 314.438,307.200 313.629 C 307.200 312.890,307.034 312.456,306.805 312.597 C 306.586 312.733,306.507 312.588,306.628 312.272 C 306.748 311.959,306.569 311.597,306.230 311.467 C 305.842 311.318,305.711 310.977,305.875 310.550 C 306.052 310.089,305.985 309.962,305.668 310.158 C 305.411 310.317,305.200 310.237,305.200 309.981 C 305.200 309.725,304.758 309.168,304.218 308.743 C 303.633 308.282,303.330 307.728,303.467 307.369 C 303.610 306.997,303.495 306.812,303.167 306.884 C 302.875 306.948,302.628 306.808,302.618 306.574 C 302.608 306.339,302.098 305.682,301.483 305.112 C 300.711 304.396,300.526 304.014,300.883 303.870 C 301.168 303.756,300.950 303.646,300.400 303.625 C 299.603 303.595,299.522 303.509,300.000 303.200 C 300.513 302.868,300.499 302.811,299.903 302.806 C 299.520 302.803,298.691 302.260,298.060 301.600 C 297.429 300.940,296.584 300.400,296.182 300.400 C 295.780 300.400,294.596 299.679,293.551 298.797 C 291.683 297.222,286.363 293.827,284.400 292.957 C 283.850 292.713,282.618 292.128,281.662 291.657 C 280.706 291.186,279.592 290.800,279.186 290.800 C 278.780 290.800,278.336 290.620,278.200 290.400 C 278.064 290.180,277.434 290.000,276.800 290.000 C 276.166 290.000,275.548 289.839,275.426 289.642 C 275.305 289.445,274.529 289.186,273.703 289.065 C 272.876 288.944,270.760 288.574,269.000 288.244 C 264.862 287.466,260.780 287.470,255.800 288.258 C 248.222 289.456,248.522 289.468,248.189 287.937 C 247.780 286.059,246.545 282.249,245.775 280.486 C 244.209 276.905,241.940 272.800,241.526 272.800 C 241.347 272.800,241.197 272.575,241.193 272.300 C 241.181 271.513,239.326 269.327,235.000 265.000 C 230.673 260.674,228.487 258.819,227.700 258.807 C 227.425 258.803,227.200 258.653,227.200 258.474 C 227.200 258.092,222.785 255.627,219.800 254.342 C 215.694 252.575,206.671 250.400,203.447 250.400 C 201.904 250.400,201.571 250.615,198.959 253.300 " stroke="none" fill="#acf4fc" fill-rule="evenodd"></path><path id="path1" d="M167.600 12.800 C 167.600 13.240,167.420 13.600,167.200 13.600 C 166.980 13.600,166.800 13.960,166.800 14.400 C 166.800 14.840,166.620 15.200,166.400 15.200 C 166.180 15.200,166.000 15.560,166.000 16.000 C 166.000 16.440,165.820 16.800,165.600 16.800 C 165.380 16.800,165.200 17.160,165.200 17.600 C 165.200 18.040,165.020 18.400,164.800 18.400 C 164.580 18.400,164.400 18.760,164.400 19.200 C 164.400 19.640,164.220 20.000,164.000 20.000 C 163.780 20.000,163.600 20.360,163.600 20.800 C 163.600 21.240,163.420 21.600,163.200 21.600 C 162.980 21.600,162.800 21.960,162.800 22.400 C 162.800 22.840,162.620 23.200,162.400 23.200 C 162.180 23.200,162.000 23.545,162.000 23.967 C 162.000 24.388,161.859 24.793,161.686 24.867 C 161.219 25.065,158.400 30.953,158.400 31.730 C 158.400 32.098,158.220 32.400,158.000 32.400 C 157.780 32.400,157.600 32.760,157.600 33.200 C 157.600 33.640,157.420 34.000,157.200 34.000 C 156.980 34.000,156.800 34.360,156.800 34.800 C 156.800 35.240,156.620 35.600,156.400 35.600 C 156.180 35.600,156.000 35.960,156.000 36.400 C 156.000 36.840,155.820 37.200,155.600 37.200 C 155.380 37.200,155.200 37.560,155.200 38.000 C 155.200 38.440,155.020 38.800,154.800 38.800 C 154.580 38.800,154.400 39.160,154.400 39.600 C 154.400 40.040,154.220 40.400,154.000 40.400 C 153.780 40.400,153.600 40.760,153.600 41.200 C 153.600 41.640,153.420 42.000,153.200 42.000 C 152.980 42.000,152.800 42.270,152.800 42.600 C 152.800 42.930,152.620 43.200,152.400 43.200 C 152.180 43.200,152.000 43.560,152.000 44.000 C 152.000 44.440,151.820 44.800,151.600 44.800 C 151.380 44.800,151.200 45.160,151.200 45.600 C 151.200 46.040,151.020 46.400,150.800 46.400 C 150.580 46.400,150.400 46.760,150.400 47.200 C 150.400 47.640,150.220 48.000,150.000 48.000 C 149.780 48.000,149.600 48.360,149.600 48.800 C 149.600 49.240,149.420 49.600,149.200 49.600 C 148.980 49.600,148.800 49.960,148.800 50.400 C 148.800 50.840,148.620 51.200,148.400 51.200 C 148.180 51.200,148.000 51.560,148.000 52.000 C 148.000 52.440,147.820 52.800,147.600 52.800 C 147.380 52.800,147.200 53.160,147.200 53.600 C 147.200 54.040,147.020 54.400,146.800 54.400 C 146.580 54.400,146.400 54.760,146.400 55.200 C 146.400 55.640,146.220 56.000,146.000 56.000 C 145.780 56.000,145.600 56.345,145.600 56.767 C 145.600 57.188,145.465 57.593,145.300 57.667 C 144.801 57.888,143.200 61.222,143.200 62.038 C 143.200 62.779,143.887 62.800,168.600 62.800 L 194.000 62.800 194.000 61.600 C 194.000 60.940,193.820 60.400,193.600 60.400 C 193.380 60.400,193.200 60.040,193.200 59.600 C 193.200 59.160,193.020 58.800,192.800 58.800 C 192.580 58.800,192.400 58.530,192.400 58.200 C 192.400 57.870,192.220 57.600,192.000 57.600 C 191.780 57.600,191.599 57.285,191.598 56.900 C 191.596 56.515,191.326 55.684,190.998 55.054 C 190.669 54.424,190.400 53.659,190.400 53.354 C 190.400 53.049,190.220 52.800,190.000 52.800 C 189.780 52.800,189.600 52.455,189.600 52.033 C 189.600 51.612,189.465 51.207,189.300 51.133 C 188.868 50.941,187.200 47.628,187.200 46.962 C 187.200 46.653,187.020 46.400,186.800 46.400 C 186.580 46.400,186.400 46.040,186.400 45.600 C 186.400 45.160,186.220 44.800,186.000 44.800 C 185.780 44.800,185.600 44.440,185.600 44.000 C 185.600 43.560,185.420 43.200,185.200 43.200 C 184.980 43.200,184.800 42.930,184.800 42.600 C 184.800 42.270,184.620 42.000,184.400 42.000 C 184.180 42.000,184.000 41.640,184.000 41.200 C 184.000 40.760,183.820 40.400,183.600 40.400 C 183.380 40.400,183.200 40.040,183.200 39.600 C 183.200 39.160,183.020 38.800,182.800 38.800 C 182.580 38.800,182.400 38.440,182.400 38.000 C 182.400 37.560,182.220 37.200,182.000 37.200 C 181.780 37.200,181.600 36.840,181.600 36.400 C 181.600 35.960,181.420 35.600,181.200 35.600 C 180.980 35.600,180.800 35.240,180.800 34.800 C 180.800 34.360,180.620 34.000,180.400 34.000 C 180.180 34.000,180.000 33.640,180.000 33.200 C 180.000 32.760,179.820 32.400,179.600 32.400 C 179.380 32.400,179.200 32.040,179.200 31.600 C 179.200 31.160,179.020 30.800,178.800 30.800 C 178.580 30.800,178.400 30.440,178.400 30.000 C 178.400 29.560,178.220 29.200,178.000 29.200 C 177.780 29.200,177.600 28.840,177.600 28.400 C 177.600 27.960,177.420 27.600,177.200 27.600 C 176.980 27.600,176.800 27.240,176.800 26.800 C 176.800 26.360,176.620 26.000,176.400 26.000 C 176.180 26.000,176.000 25.730,176.000 25.400 C 176.000 25.070,175.820 24.800,175.600 24.800 C 175.380 24.800,175.200 24.451,175.200 24.024 C 175.200 23.597,175.017 23.134,174.793 22.996 C 174.570 22.858,174.483 22.590,174.600 22.400 C 174.717 22.210,174.630 21.942,174.407 21.804 C 174.183 21.666,174.000 21.203,174.000 20.776 C 174.000 20.349,173.820 20.000,173.600 20.000 C 173.380 20.000,173.200 19.640,173.200 19.200 C 173.200 18.760,173.020 18.400,172.800 18.400 C 172.580 18.400,172.400 18.055,172.400 17.633 C 172.400 17.212,172.265 16.807,172.100 16.733 C 171.668 16.541,170.000 13.228,170.000 12.562 C 170.000 12.204,169.564 12.000,168.800 12.000 C 167.867 12.000,167.600 12.178,167.600 12.800 M57.600 58.600 C 57.600 59.150,57.780 59.600,58.000 59.600 C 58.220 59.600,58.400 60.029,58.400 60.554 C 58.400 61.467,59.322 64.916,60.017 66.600 C 60.199 67.040,60.561 68.120,60.823 69.000 C 61.084 69.880,61.456 70.913,61.649 71.295 C 61.842 71.677,62.000 72.341,62.000 72.771 C 62.000 73.201,62.180 73.664,62.400 73.800 C 62.620 73.936,62.800 74.487,62.800 75.024 C 62.800 75.561,62.980 76.000,63.200 76.000 C 63.420 76.000,63.600 76.540,63.600 77.200 C 63.600 77.860,63.780 78.400,64.000 78.400 C 64.220 78.400,64.400 78.940,64.400 79.600 C 64.400 80.260,64.580 80.800,64.800 80.800 C 65.020 80.800,65.200 81.340,65.200 82.000 C 65.200 82.660,65.380 83.200,65.600 83.200 C 65.820 83.200,66.000 83.740,66.000 84.400 C 66.000 85.060,66.180 85.600,66.400 85.600 C 66.620 85.600,66.800 86.140,66.800 86.800 C 66.800 87.460,66.980 88.000,67.200 88.000 C 67.420 88.000,67.600 88.439,67.600 88.976 C 67.600 89.513,67.780 90.064,68.000 90.200 C 68.220 90.336,68.400 90.887,68.400 91.424 C 68.400 91.961,68.580 92.400,68.800 92.400 C 69.020 92.400,69.200 92.940,69.200 93.600 C 69.200 94.260,69.380 94.800,69.600 94.800 C 69.820 94.800,70.000 95.340,70.000 96.000 C 70.000 96.660,70.180 97.200,70.400 97.200 C 70.620 97.200,70.800 97.740,70.800 98.400 C 70.800 99.060,70.980 99.600,71.200 99.600 C 71.420 99.600,71.600 100.140,71.600 100.800 C 71.600 101.460,71.780 102.000,72.000 102.000 C 72.220 102.000,72.400 102.540,72.400 103.200 C 72.400 103.860,72.580 104.400,72.800 104.400 C 73.020 104.400,73.200 104.951,73.200 105.624 C 73.200 106.337,73.367 106.744,73.600 106.600 C 73.833 106.456,74.000 106.863,74.000 107.576 C 74.000 108.249,74.180 108.800,74.400 108.800 C 74.620 108.800,74.800 109.263,74.800 109.829 C 74.800 110.771,75.589 112.000,76.194 112.000 C 76.331 112.000,77.514 110.910,78.822 109.577 C 80.130 108.245,81.200 107.259,81.200 107.385 C 81.200 107.512,83.495 105.257,86.300 102.374 C 91.365 97.169,93.613 94.925,102.807 85.900 C 105.440 83.315,107.496 81.200,107.375 81.200 C 107.254 81.200,108.245 80.130,109.577 78.822 C 110.910 77.514,112.000 76.331,112.000 76.194 C 112.000 75.589,110.771 74.800,109.829 74.800 C 109.263 74.800,108.800 74.620,108.800 74.400 C 108.800 74.180,108.350 74.000,107.800 74.000 C 107.250 74.000,106.800 73.820,106.800 73.600 C 106.800 73.380,106.260 73.200,105.600 73.200 C 104.940 73.200,104.400 73.020,104.400 72.800 C 104.400 72.580,103.860 72.400,103.200 72.400 C 102.540 72.400,102.000 72.220,102.000 72.000 C 102.000 71.780,101.460 71.600,100.800 71.600 C 100.140 71.600,99.600 71.420,99.600 71.200 C 99.600 70.980,99.060 70.800,98.400 70.800 C 97.740 70.800,97.200 70.620,97.200 70.400 C 97.200 70.180,96.660 70.000,96.000 70.000 C 95.340 70.000,94.800 69.820,94.800 69.600 C 94.800 69.380,94.260 69.200,93.600 69.200 C 92.940 69.200,92.400 69.020,92.400 68.800 C 92.400 68.580,91.961 68.400,91.424 68.400 C 90.887 68.400,90.336 68.220,90.200 68.000 C 90.064 67.780,89.513 67.600,88.976 67.600 C 88.439 67.600,88.000 67.420,88.000 67.200 C 88.000 66.980,87.460 66.800,86.800 66.800 C 86.140 66.800,85.600 66.620,85.600 66.400 C 85.600 66.180,85.060 66.000,84.400 66.000 C 83.740 66.000,83.200 65.820,83.200 65.600 C 83.200 65.380,82.660 65.200,82.000 65.200 C 81.340 65.200,80.800 65.020,80.800 64.800 C 80.800 64.580,80.260 64.400,79.600 64.400 C 78.940 64.400,78.400 64.220,78.400 64.000 C 78.400 63.780,77.860 63.600,77.200 63.600 C 76.540 63.600,76.000 63.420,76.000 63.200 C 76.000 62.980,75.561 62.800,75.024 62.800 C 74.487 62.800,73.936 62.620,73.800 62.400 C 73.664 62.180,73.124 62.000,72.600 62.000 C 72.076 62.000,71.536 61.820,71.400 61.600 C 71.264 61.380,70.724 61.200,70.200 61.200 C 69.676 61.200,69.136 61.020,69.000 60.800 C 68.864 60.580,68.324 60.400,67.800 60.400 C 67.276 60.400,66.736 60.220,66.600 60.000 C 66.464 59.780,65.924 59.600,65.400 59.600 C 64.876 59.600,64.344 59.433,64.217 59.228 C 64.091 59.023,63.000 58.733,61.794 58.582 C 60.587 58.431,59.600 58.149,59.600 57.954 C 59.600 57.759,59.150 57.600,58.600 57.600 C 57.800 57.600,57.600 57.800,57.600 58.600 M277.600 57.962 C 277.600 58.162,276.700 58.449,275.600 58.600 C 274.501 58.751,273.500 59.038,273.377 59.237 C 273.254 59.437,272.724 59.600,272.200 59.600 C 271.676 59.600,271.136 59.780,271.000 60.000 C 270.864 60.220,270.223 60.400,269.576 60.400 C 268.929 60.400,268.400 60.580,268.400 60.800 C 268.400 61.020,267.860 61.200,267.200 61.200 C 266.540 61.200,266.000 61.380,266.000 61.600 C 266.000 61.820,265.460 62.000,264.800 62.000 C 264.140 62.000,263.600 62.180,263.600 62.400 C 263.600 62.620,263.161 62.800,262.624 62.800 C 262.087 62.800,261.536 62.980,261.400 63.200 C 261.264 63.420,260.713 63.600,260.176 63.600 C 259.639 63.600,259.200 63.780,259.200 64.000 C 259.200 64.220,258.660 64.400,258.000 64.400 C 257.340 64.400,256.800 64.580,256.800 64.800 C 256.800 65.020,256.260 65.200,255.600 65.200 C 254.940 65.200,254.400 65.380,254.400 65.600 C 254.400 65.820,253.860 66.000,253.200 66.000 C 252.540 66.000,252.000 66.180,252.000 66.400 C 252.000 66.620,251.460 66.800,250.800 66.800 C 250.140 66.800,249.600 66.980,249.600 67.200 C 249.600 67.420,249.161 67.600,248.624 67.600 C 248.087 67.600,247.536 67.780,247.400 68.000 C 247.264 68.220,246.623 68.400,245.976 68.400 C 245.329 68.400,244.800 68.580,244.800 68.800 C 244.800 69.020,244.361 69.200,243.824 69.200 C 243.287 69.200,242.736 69.380,242.600 69.600 C 242.464 69.820,241.913 70.000,241.376 70.000 C 240.839 70.000,240.400 70.180,240.400 70.400 C 240.400 70.620,239.860 70.800,239.200 70.800 C 238.540 70.800,238.000 70.980,238.000 71.200 C 238.000 71.420,237.460 71.600,236.800 71.600 C 236.140 71.600,235.600 71.780,235.600 72.000 C 235.600 72.220,235.060 72.400,234.400 72.400 C 233.740 72.400,233.200 72.580,233.200 72.800 C 233.200 73.020,232.660 73.200,232.000 73.200 C 231.340 73.200,230.800 73.380,230.800 73.600 C 230.800 73.820,230.361 74.000,229.824 74.000 C 229.287 74.000,228.736 74.180,228.600 74.400 C 228.464 74.620,227.991 74.800,227.548 74.800 C 226.680 74.800,225.600 75.674,225.600 76.376 C 225.600 76.813,238.105 89.407,241.110 91.995 C 242.001 92.763,242.683 93.483,242.627 93.595 C 242.571 93.708,245.646 96.906,249.462 100.703 C 253.278 104.499,256.400 107.495,256.400 107.360 C 256.400 107.069,258.248 109.016,259.623 110.756 C 261.078 112.597,262.800 112.094,262.800 109.829 C 262.800 109.263,262.980 108.800,263.200 108.800 C 263.420 108.800,263.600 108.361,263.600 107.824 C 263.600 107.287,263.780 106.736,264.000 106.600 C 264.220 106.464,264.400 105.913,264.400 105.376 C 264.400 104.839,264.580 104.400,264.800 104.400 C 265.020 104.400,265.200 103.860,265.200 103.200 C 265.200 102.540,265.380 102.000,265.600 102.000 C 265.820 102.000,266.000 101.460,266.000 100.800 C 266.000 100.140,266.180 99.600,266.400 99.600 C 266.620 99.600,266.800 99.060,266.800 98.400 C 266.800 97.740,266.980 97.200,267.200 97.200 C 267.420 97.200,267.600 96.660,267.600 96.000 C 267.600 95.340,267.780 94.800,268.000 94.800 C 268.220 94.800,268.400 94.260,268.400 93.600 C 268.400 92.940,268.580 92.400,268.800 92.400 C 269.020 92.400,269.200 91.961,269.200 91.424 C 269.200 90.887,269.380 90.336,269.600 90.200 C 269.820 90.064,270.000 89.524,270.000 89.000 C 270.000 88.476,270.180 87.936,270.400 87.800 C 270.620 87.664,270.800 87.113,270.800 86.576 C 270.800 86.039,270.980 85.600,271.200 85.600 C 271.420 85.600,271.600 85.060,271.600 84.400 C 271.600 83.740,271.780 83.200,272.000 83.200 C 272.220 83.200,272.400 82.660,272.400 82.000 C 272.400 81.340,272.542 80.800,272.715 80.800 C 272.888 80.800,273.060 80.398,273.097 79.907 C 273.134 79.416,273.328 78.651,273.527 78.207 C 274.268 76.562,275.204 73.372,275.202 72.500 C 275.201 72.005,275.380 71.600,275.600 71.600 C 275.820 71.600,276.000 71.060,276.000 70.400 C 276.000 69.740,276.180 69.200,276.400 69.200 C 276.620 69.200,276.800 68.660,276.800 68.000 C 276.800 67.340,276.980 66.800,277.200 66.800 C 277.420 66.800,277.600 66.260,277.600 65.600 C 277.600 64.940,277.780 64.400,278.000 64.400 C 278.220 64.400,278.400 63.860,278.400 63.200 C 278.400 62.540,278.580 62.000,278.800 62.000 C 279.020 62.000,279.200 61.460,279.200 60.800 C 279.200 60.140,279.380 59.600,279.600 59.600 C 279.820 59.600,280.000 59.150,280.000 58.600 C 280.000 57.756,279.813 57.600,278.800 57.600 C 278.140 57.600,277.600 57.763,277.600 57.962 M157.600 87.600 C 157.600 87.825,156.475 88.000,155.024 88.000 C 153.607 88.000,152.336 88.180,152.200 88.400 C 152.064 88.620,151.243 88.800,150.376 88.800 C 149.509 88.800,148.800 88.980,148.800 89.200 C 148.800 89.420,148.170 89.600,147.400 89.600 C 146.630 89.600,146.000 89.780,146.000 90.000 C 146.000 90.220,145.471 90.400,144.824 90.400 C 144.177 90.400,143.536 90.580,143.400 90.800 C 143.264 91.020,142.724 91.200,142.200 91.200 C 141.676 91.200,141.136 91.380,141.000 91.600 C 140.864 91.820,140.386 92.000,139.937 92.000 C 139.488 92.000,138.464 92.288,137.660 92.641 C 136.857 92.993,135.840 93.424,135.400 93.599 C 133.070 94.523,128.153 97.045,127.600 97.601 C 127.490 97.711,126.860 98.070,126.200 98.398 C 125.540 98.726,124.709 99.311,124.353 99.697 C 123.997 100.084,123.452 100.400,123.141 100.400 C 122.831 100.400,122.317 100.760,122.000 101.200 C 121.683 101.640,121.231 102.000,120.996 102.000 C 120.760 102.000,119.772 102.720,118.800 103.600 C 117.828 104.480,116.897 105.200,116.731 105.200 C 116.381 105.200,112.663 108.617,110.260 111.148 C 109.347 112.109,107.655 113.888,106.500 115.101 C 105.345 116.315,104.400 117.481,104.400 117.693 C 104.400 117.905,103.860 118.583,103.200 119.200 C 102.540 119.817,102.000 120.569,102.000 120.872 C 102.000 121.175,101.640 121.683,101.200 122.000 C 100.760 122.317,100.400 122.831,100.400 123.141 C 100.400 123.452,100.084 123.997,99.697 124.353 C 99.311 124.709,98.726 125.540,98.398 126.200 C 98.070 126.860,97.711 127.490,97.601 127.600 C 96.885 128.314,93.200 135.783,93.200 136.520 C 93.200 136.806,93.046 137.211,92.858 137.420 C 92.433 137.892,91.200 141.726,91.200 142.575 C 91.200 142.919,91.020 143.200,90.800 143.200 C 90.580 143.200,90.400 143.729,90.400 144.376 C 90.400 145.023,90.220 145.664,90.000 145.800 C 89.780 145.936,89.600 146.667,89.600 147.424 C 89.600 148.181,89.420 148.800,89.200 148.800 C 88.980 148.800,88.800 149.599,88.800 150.576 C 88.800 151.553,88.620 152.464,88.400 152.600 C 88.180 152.736,88.000 153.917,88.000 155.224 C 88.000 156.541,87.822 157.600,87.600 157.600 C 87.343 157.600,87.200 161.600,87.200 168.800 C 87.200 176.000,87.343 180.000,87.600 180.000 C 87.822 180.000,88.000 181.067,88.000 182.400 C 88.000 183.733,88.178 184.800,88.400 184.800 C 88.620 184.800,88.800 185.700,88.800 186.800 C 88.800 187.900,88.980 188.800,89.200 188.800 C 89.420 188.800,89.600 189.430,89.600 190.200 C 89.600 190.970,89.780 191.600,90.000 191.600 C 90.220 191.600,90.400 192.140,90.400 192.800 C 90.400 193.460,90.580 194.000,90.800 194.000 C 91.020 194.000,91.200 194.529,91.200 195.176 C 91.200 195.823,91.380 196.464,91.600 196.600 C 91.820 196.736,92.000 197.214,92.000 197.663 C 92.000 198.112,92.288 199.136,92.641 199.940 C 92.993 200.743,93.420 201.760,93.590 202.200 C 95.758 207.822,96.906 208.834,99.233 207.177 C 99.869 206.724,101.877 205.661,103.695 204.816 C 115.242 199.447,125.862 198.702,139.200 202.327 C 150.038 205.273,162.977 215.204,167.568 224.100 C 168.403 225.720,168.890 225.486,170.899 222.500 C 181.989 206.012,201.032 197.632,220.200 200.803 C 221.520 201.022,223.426 201.311,224.436 201.445 L 226.271 201.689 226.775 199.745 C 229.604 188.823,237.388 177.793,246.653 171.576 C 248.384 170.415,249.932 169.270,250.094 169.032 C 250.548 168.365,250.462 157.685,250.000 157.400 C 249.780 157.264,249.600 156.184,249.600 155.000 C 249.600 153.816,249.420 152.736,249.200 152.600 C 248.980 152.464,248.800 151.553,248.800 150.576 C 248.800 149.599,248.620 148.800,248.400 148.800 C 248.180 148.800,248.000 148.080,248.000 147.200 C 248.000 146.320,247.820 145.600,247.600 145.600 C 247.380 145.600,247.200 145.060,247.200 144.400 C 247.200 143.740,247.020 143.200,246.800 143.200 C 246.580 143.200,246.400 142.750,246.400 142.200 C 246.400 141.650,246.220 141.200,246.000 141.200 C 245.780 141.200,245.600 140.660,245.600 140.000 C 245.600 139.340,245.420 138.800,245.200 138.800 C 244.980 138.800,244.800 138.440,244.800 138.000 C 244.800 137.560,244.620 137.200,244.400 137.200 C 244.180 137.200,244.000 136.660,244.000 136.000 C 244.000 135.340,243.820 134.800,243.600 134.800 C 243.380 134.800,243.200 134.440,243.200 134.000 C 243.200 133.560,243.020 133.200,242.800 133.200 C 242.580 133.200,242.400 132.840,242.400 132.400 C 242.400 131.960,242.220 131.600,242.000 131.600 C 241.780 131.600,241.600 131.321,241.600 130.980 C 241.600 130.358,240.502 127.975,240.044 127.600 C 239.909 127.490,239.530 126.860,239.202 126.200 C 238.874 125.540,238.289 124.709,237.903 124.353 C 237.516 123.997,237.200 123.452,237.200 123.141 C 237.200 122.831,236.840 122.317,236.400 122.000 C 235.960 121.683,235.600 121.175,235.600 120.872 C 235.600 120.569,235.060 119.817,234.400 119.200 C 233.740 118.583,233.200 117.875,233.200 117.625 C 233.200 117.052,220.521 104.400,219.946 104.400 C 219.712 104.400,219.017 103.860,218.400 103.200 C 217.783 102.540,217.031 102.000,216.728 102.000 C 216.425 102.000,215.917 101.640,215.600 101.200 C 215.283 100.760,214.743 100.400,214.400 100.400 C 214.057 100.400,213.517 100.040,213.200 99.600 C 212.883 99.160,212.303 98.800,211.912 98.800 C 211.520 98.800,211.200 98.620,211.200 98.400 C 211.200 98.180,210.964 98.000,210.675 98.000 C 210.387 98.000,209.764 97.640,209.292 97.200 C 208.820 96.760,208.171 96.400,207.850 96.400 C 207.529 96.400,207.207 96.256,207.133 96.080 C 206.952 95.644,201.796 93.200,201.059 93.200 C 200.733 93.200,200.407 93.062,200.333 92.894 C 200.159 92.495,195.980 91.200,194.865 91.200 C 194.389 91.200,194.000 91.020,194.000 90.800 C 194.000 90.580,193.460 90.400,192.800 90.400 C 192.140 90.400,191.600 90.220,191.600 90.000 C 191.600 89.780,190.970 89.600,190.200 89.600 C 189.430 89.600,188.800 89.420,188.800 89.200 C 188.800 88.980,188.091 88.800,187.224 88.800 C 186.357 88.800,185.536 88.620,185.400 88.400 C 185.264 88.180,184.094 88.000,182.800 88.000 C 181.506 88.000,180.336 87.820,180.200 87.600 C 180.045 87.349,175.796 87.200,168.776 87.200 C 161.592 87.200,157.600 87.343,157.600 87.600 M59.400 144.135 C 58.520 144.611,57.740 145.135,57.667 145.300 C 57.593 145.465,57.188 145.600,56.767 145.600 C 56.345 145.600,56.000 145.780,56.000 146.000 C 56.000 146.220,55.640 146.400,55.200 146.400 C 54.760 146.400,54.400 146.580,54.400 146.800 C 54.400 147.020,54.040 147.200,53.600 147.200 C 53.160 147.200,52.800 147.380,52.800 147.600 C 52.800 147.820,52.440 148.000,52.000 148.000 C 51.560 148.000,51.200 148.180,51.200 148.400 C 51.200 148.620,50.840 148.800,50.400 148.800 C 49.960 148.800,49.600 148.980,49.600 149.200 C 49.600 149.420,49.240 149.600,48.800 149.600 C 48.360 149.600,48.000 149.780,48.000 150.000 C 48.000 150.220,47.640 150.400,47.200 150.400 C 46.760 150.400,46.400 150.580,46.400 150.800 C 46.400 151.020,46.040 151.200,45.600 151.200 C 45.160 151.200,44.800 151.380,44.800 151.600 C 44.800 151.820,44.440 152.000,44.000 152.000 C 43.560 152.000,43.200 152.180,43.200 152.400 C 43.200 152.620,42.930 152.800,42.600 152.800 C 42.270 152.800,42.000 152.980,42.000 153.200 C 42.000 153.420,41.640 153.600,41.200 153.600 C 40.760 153.600,40.400 153.780,40.400 154.000 C 40.400 154.220,40.040 154.400,39.600 154.400 C 39.160 154.400,38.800 154.580,38.800 154.800 C 38.800 155.020,38.440 155.200,38.000 155.200 C 37.560 155.200,37.200 155.380,37.200 155.600 C 37.200 155.820,36.840 156.000,36.400 156.000 C 35.960 156.000,35.600 156.180,35.600 156.400 C 35.600 156.620,35.240 156.800,34.800 156.800 C 34.360 156.800,34.000 156.980,34.000 157.200 C 34.000 157.420,33.640 157.600,33.200 157.600 C 32.760 157.600,32.400 157.780,32.400 158.000 C 32.400 158.220,32.098 158.400,31.730 158.400 C 30.953 158.400,25.065 161.219,24.867 161.686 C 24.793 161.859,24.388 162.000,23.967 162.000 C 23.545 162.000,23.200 162.180,23.200 162.400 C 23.200 162.620,22.840 162.800,22.400 162.800 C 21.960 162.800,21.600 162.980,21.600 163.200 C 21.600 163.420,21.240 163.600,20.800 163.600 C 20.360 163.600,20.000 163.780,20.000 164.000 C 20.000 164.220,19.640 164.400,19.200 164.400 C 18.760 164.400,18.400 164.580,18.400 164.800 C 18.400 165.020,18.040 165.200,17.600 165.200 C 17.160 165.200,16.800 165.380,16.800 165.600 C 16.800 165.820,16.440 166.000,16.000 166.000 C 15.560 166.000,15.200 166.180,15.200 166.400 C 15.200 166.620,14.840 166.800,14.400 166.800 C 13.960 166.800,13.600 166.980,13.600 167.200 C 13.600 167.420,13.240 167.600,12.800 167.600 C 12.178 167.600,12.000 167.867,12.000 168.800 C 12.000 169.733,12.178 170.000,12.800 170.000 C 13.240 170.000,13.600 170.180,13.600 170.400 C 13.600 170.620,13.834 170.800,14.120 170.800 C 14.856 170.800,16.793 171.741,16.797 172.100 C 16.799 172.265,17.160 172.400,17.600 172.400 C 18.040 172.400,18.400 172.580,18.400 172.800 C 18.400 173.020,18.760 173.200,19.200 173.200 C 19.640 173.200,20.000 173.380,20.000 173.600 C 20.000 173.820,20.249 174.000,20.554 174.000 C 20.859 174.000,21.624 174.269,22.254 174.598 C 22.884 174.926,23.715 175.196,24.100 175.198 C 24.485 175.199,24.800 175.380,24.800 175.600 C 24.800 175.820,25.070 176.000,25.400 176.000 C 25.730 176.000,26.000 176.180,26.000 176.400 C 26.000 176.620,26.360 176.800,26.800 176.800 C 27.240 176.800,27.600 176.980,27.600 177.200 C 27.600 177.420,27.960 177.600,28.400 177.600 C 28.840 177.600,29.200 177.780,29.200 178.000 C 29.200 178.220,29.560 178.400,30.000 178.400 C 30.440 178.400,30.800 178.580,30.800 178.800 C 30.800 179.020,31.160 179.200,31.600 179.200 C 32.040 179.200,32.400 179.380,32.400 179.600 C 32.400 179.820,32.760 180.000,33.200 180.000 C 33.640 180.000,34.000 180.180,34.000 180.400 C 34.000 180.620,34.360 180.800,34.800 180.800 C 35.240 180.800,35.600 180.980,35.600 181.200 C 35.600 181.420,35.960 181.600,36.400 181.600 C 36.840 181.600,37.200 181.780,37.200 182.000 C 37.200 182.220,37.560 182.400,38.000 182.400 C 38.440 182.400,38.800 182.580,38.800 182.800 C 38.800 183.020,39.160 183.200,39.600 183.200 C 40.040 183.200,40.400 183.380,40.400 183.600 C 40.400 183.820,40.760 184.000,41.200 184.000 C 41.640 184.000,42.000 184.180,42.000 184.400 C 42.000 184.620,42.270 184.800,42.600 184.800 C 42.930 184.800,43.200 184.980,43.200 185.200 C 43.200 185.420,43.560 185.600,44.000 185.600 C 44.440 185.600,44.800 185.780,44.800 186.000 C 44.800 186.220,45.160 186.400,45.600 186.400 C 46.040 186.400,46.400 186.580,46.400 186.800 C 46.400 187.020,46.634 187.200,46.920 187.200 C 47.656 187.200,49.593 188.141,49.597 188.500 C 49.599 188.665,49.960 188.800,50.400 188.800 C 50.840 188.800,51.200 188.980,51.200 189.200 C 51.200 189.420,51.560 189.600,52.000 189.600 C 52.440 189.600,52.800 189.780,52.800 190.000 C 52.800 190.220,53.049 190.400,53.354 190.400 C 53.659 190.400,54.424 190.669,55.054 190.998 C 55.684 191.326,56.515 191.596,56.900 191.598 C 57.285 191.599,57.600 191.780,57.600 192.000 C 57.600 192.220,57.870 192.400,58.200 192.400 C 58.530 192.400,58.800 192.580,58.800 192.800 C 58.800 193.020,59.160 193.200,59.600 193.200 C 60.040 193.200,60.400 193.380,60.400 193.600 C 60.400 193.820,60.940 194.000,61.600 194.000 L 62.800 194.000 62.800 168.600 L 62.800 143.200 61.900 143.235 C 61.405 143.255,60.280 143.660,59.400 144.135 " stroke="none" fill="#f5c148" fill-rule="evenodd"></path><path id="path2" d="M266.069 162.517 C 265.835 162.798,265.139 163.004,264.522 162.973 C 263.905 162.943,263.310 163.055,263.199 163.223 C 263.088 163.390,262.368 163.604,261.599 163.698 C 260.157 163.874,259.531 164.073,257.296 165.064 C 256.578 165.382,255.785 165.515,255.534 165.359 C 255.252 165.185,255.186 165.254,255.362 165.538 C 255.541 165.828,255.350 166.000,254.847 166.000 C 254.407 166.000,253.936 166.180,253.800 166.400 C 253.664 166.620,253.203 166.800,252.776 166.800 C 252.349 166.800,252.000 166.980,252.000 167.200 C 252.000 167.420,251.610 167.600,251.133 167.600 C 250.657 167.600,250.380 167.714,250.519 167.853 C 251.035 168.369,249.910 169.631,247.490 171.249 C 239.116 176.851,231.921 185.774,228.822 194.400 C 228.546 195.170,228.178 196.160,228.005 196.600 C 227.833 197.040,227.469 198.210,227.198 199.200 C 226.927 200.190,226.638 201.236,226.556 201.525 C 226.395 202.089,223.249 201.834,221.926 201.149 C 221.556 200.957,220.476 200.799,219.526 200.798 C 218.577 200.796,216.774 200.627,215.521 200.422 C 211.154 199.707,200.282 201.352,194.600 203.587 C 172.656 212.221,158.663 236.912,163.422 258.600 C 164.650 264.193,164.637 264.387,162.921 266.263 C 160.716 268.675,160.287 269.219,158.527 271.838 C 156.373 275.043,156.291 275.200,156.776 275.200 C 157.009 275.200,157.200 275.010,157.200 274.778 C 157.200 274.546,157.899 273.331,158.752 272.078 C 173.926 249.809,203.987 243.432,226.758 257.651 C 236.816 263.932,248.400 279.814,248.400 287.324 C 248.400 288.519,249.482 289.156,250.893 288.791 C 255.180 287.683,257.005 287.529,264.000 287.689 C 270.660 287.840,273.506 288.195,276.200 289.208 C 276.640 289.373,277.810 289.741,278.800 290.024 C 279.790 290.307,280.771 290.688,280.980 290.870 C 281.189 291.051,281.684 291.200,282.080 291.200 C 282.476 291.200,282.800 291.380,282.800 291.600 C 282.800 291.820,283.053 292.000,283.362 292.000 C 284.028 292.000,287.341 293.668,287.533 294.100 C 287.607 294.265,287.844 294.400,288.061 294.400 C 288.422 294.400,291.932 296.644,292.400 297.174 C 292.942 297.787,295.892 299.888,296.564 300.139 C 297.609 300.529,346.105 300.467,346.380 300.075 C 346.501 299.902,347.410 299.708,348.400 299.643 C 349.390 299.578,350.295 299.370,350.412 299.181 C 350.529 298.992,351.282 298.793,352.086 298.738 C 352.890 298.684,353.459 298.496,353.351 298.320 C 353.242 298.144,353.478 297.997,353.876 297.994 C 354.996 297.985,357.640 296.973,357.337 296.670 C 357.188 296.522,357.459 296.400,357.939 296.400 C 358.742 296.400,360.326 295.718,360.800 295.168 C 360.910 295.040,361.585 294.681,362.300 294.370 C 363.015 294.059,363.600 293.669,363.600 293.502 C 363.600 293.336,363.971 293.200,364.424 293.200 C 364.877 293.200,365.136 293.020,365.000 292.800 C 364.864 292.580,365.033 292.400,365.376 292.400 C 365.719 292.400,366.000 292.242,366.000 292.049 C 366.000 291.855,366.540 291.473,367.200 291.200 C 367.860 290.927,368.400 290.515,368.400 290.285 C 368.400 290.055,368.517 289.983,368.659 290.126 C 368.802 290.269,369.252 290.001,369.659 289.532 C 370.067 289.062,370.400 288.773,370.400 288.890 C 370.400 289.007,371.480 288.052,372.800 286.768 C 374.120 285.485,375.200 284.236,375.200 283.994 C 375.200 283.751,375.380 283.664,375.600 283.800 C 375.820 283.936,376.000 283.677,376.000 283.224 C 376.000 282.771,376.197 282.445,376.437 282.500 C 376.678 282.555,377.083 282.240,377.337 281.800 C 377.592 281.360,377.902 280.910,378.026 280.800 C 378.582 280.309,380.800 276.813,380.800 276.428 C 380.800 276.193,380.980 276.000,381.200 276.000 C 381.420 276.000,381.600 275.719,381.600 275.376 C 381.600 275.033,381.743 274.841,381.917 274.949 C 382.091 275.056,382.263 274.755,382.299 274.278 C 382.335 273.802,382.552 273.349,382.782 273.273 C 383.012 273.196,383.200 272.778,383.200 272.343 C 383.200 271.908,383.350 271.645,383.533 271.758 C 383.716 271.871,384.106 271.080,384.400 270.000 C 384.694 268.920,385.046 268.105,385.183 268.189 C 385.319 268.273,385.467 267.896,385.512 267.350 C 385.558 266.804,385.776 266.019,385.997 265.605 C 386.219 265.191,386.400 264.481,386.400 264.026 C 386.400 263.572,386.580 263.200,386.800 263.200 C 387.020 263.200,387.200 262.468,387.200 261.574 C 387.200 260.679,387.369 259.631,387.577 259.244 C 387.784 258.857,387.992 257.339,388.040 255.870 C 388.087 254.402,388.300 253.200,388.512 253.200 C 388.724 253.200,388.687 252.946,388.430 252.636 C 388.172 252.325,388.105 251.982,388.281 251.874 C 388.643 251.650,388.639 247.314,388.276 246.400 C 388.144 246.070,387.947 244.630,387.836 243.200 C 387.509 238.976,387.143 236.800,386.760 236.800 C 386.562 236.800,386.400 236.527,386.400 236.194 C 386.400 235.224,385.434 232.400,385.103 232.400 C 384.936 232.400,384.797 232.085,384.794 231.700 C 384.787 230.909,383.653 227.580,383.602 228.200 C 383.560 228.703,382.314 225.972,382.287 225.318 C 382.276 225.052,382.117 224.928,381.933 225.041 C 381.750 225.155,381.600 224.967,381.600 224.624 C 381.600 224.281,381.420 224.000,381.200 224.000 C 380.980 224.000,380.800 223.640,380.800 223.200 C 380.800 222.760,380.662 222.400,380.494 222.400 C 380.326 222.400,379.744 221.680,379.200 220.800 C 378.656 219.920,378.074 219.200,377.906 219.200 C 377.738 219.200,377.600 218.936,377.600 218.614 C 377.600 218.292,377.240 217.835,376.800 217.600 C 376.360 217.365,376.000 216.878,376.000 216.519 C 376.000 216.160,375.881 215.986,375.736 216.131 C 375.590 216.276,375.271 215.991,375.025 215.498 C 374.780 215.004,373.996 214.410,373.284 214.178 C 372.572 213.946,371.227 213.040,370.295 212.165 C 368.367 210.355,365.371 208.000,364.996 208.000 C 364.857 208.000,363.992 207.498,363.072 206.884 C 361.508 205.841,358.425 204.278,356.600 203.603 C 356.160 203.440,355.350 203.128,354.800 202.909 C 352.856 202.135,350.933 201.600,350.095 201.600 C 349.629 201.600,349.150 201.443,349.032 201.252 C 348.189 199.888,328.928 199.897,326.153 201.262 C 324.840 201.908,323.852 201.515,323.471 200.196 C 320.576 190.163,317.079 184.060,310.322 177.246 C 306.984 173.880,301.459 169.600,300.451 169.600 C 300.240 169.600,300.007 169.464,299.933 169.298 C 299.806 169.010,295.306 166.742,293.200 165.904 C 292.650 165.686,291.887 165.348,291.505 165.153 C 291.123 164.959,290.459 164.800,290.029 164.800 C 289.599 164.800,289.151 164.644,289.033 164.454 C 288.916 164.264,288.140 163.999,287.310 163.866 C 286.479 163.733,284.360 163.349,282.600 163.013 C 278.199 162.173,266.642 161.827,266.069 162.517 M154.817 278.226 C 153.411 281.142,152.312 284.045,152.532 284.265 C 152.609 284.342,153.182 283.099,153.805 281.502 C 154.428 279.906,155.276 277.994,155.689 277.253 C 156.102 276.512,156.363 275.830,156.269 275.736 C 156.176 275.643,155.522 276.763,154.817 278.226 M151.829 285.829 C 151.681 286.415,151.638 286.972,151.732 287.066 C 151.827 287.160,152.024 286.758,152.171 286.171 C 152.319 285.585,152.362 285.028,152.268 284.934 C 152.173 284.840,151.976 285.242,151.829 285.829 M135.700 287.494 C 136.745 287.576,138.455 287.576,139.500 287.494 C 140.545 287.412,139.690 287.344,137.600 287.344 C 135.510 287.344,134.655 287.412,135.700 287.494 M128.800 288.000 L 127.400 288.295 129.000 288.300 C 129.880 288.303,131.140 288.168,131.800 288.000 L 133.000 287.695 131.600 287.700 C 130.830 287.703,129.570 287.838,128.800 288.000 M143.000 288.000 C 143.660 288.168,144.920 288.306,145.800 288.307 L 147.400 288.308 145.800 287.977 C 144.920 287.795,143.660 287.657,143.000 287.670 L 141.800 287.695 143.000 288.000 M151.200 288.454 C 151.200 288.765,150.599 288.829,149.300 288.657 C 147.998 288.485,147.589 288.529,148.000 288.797 C 148.988 289.440,151.600 289.298,151.600 288.600 C 151.600 288.270,151.510 288.000,151.400 288.000 C 151.290 288.000,151.200 288.204,151.200 288.454 M125.400 288.683 C 110.240 292.287,96.790 304.043,90.712 319.002 C 89.460 322.083,89.033 323.750,89.584 323.410 C 89.813 323.268,90.000 322.801,90.000 322.371 C 90.000 321.941,90.159 321.277,90.353 320.895 C 90.548 320.513,90.889 319.750,91.111 319.200 C 96.726 305.309,107.780 294.945,122.227 290.026 C 123.561 289.572,125.001 289.197,125.427 289.194 C 125.852 289.191,126.470 289.013,126.800 288.800 C 127.481 288.360,126.947 288.315,125.400 288.683 M88.464 326.098 C 88.209 327.254,87.914 329.100,87.809 330.200 L 87.618 332.200 88.011 330.400 C 88.227 329.410,88.612 327.654,88.866 326.498 C 89.121 325.342,89.239 324.305,89.129 324.195 C 89.019 324.085,88.720 324.941,88.464 326.098 M87.195 335.282 C 87.088 336.757,87.145 337.818,87.322 337.640 C 87.499 337.462,87.586 336.255,87.517 334.958 L 87.390 332.600 87.195 335.282 " stroke="none" fill="#6cdff9" fill-rule="evenodd"></path><path id="path3" d="M336.400 106.385 C 336.400 106.613,335.759 106.800,334.976 106.800 C 334.129 106.800,333.653 106.962,333.800 107.200 C 333.940 107.427,333.604 107.600,333.024 107.600 C 332.461 107.600,332.000 107.780,332.000 108.000 C 332.000 108.220,331.460 108.400,330.800 108.400 C 330.140 108.400,329.600 108.580,329.600 108.800 C 329.600 109.020,329.229 109.200,328.776 109.200 C 328.256 109.200,328.058 109.370,328.238 109.662 C 328.421 109.958,328.347 110.015,328.031 109.819 C 327.583 109.542,324.410 111.676,324.067 112.485 C 323.993 112.658,323.668 112.800,323.343 112.800 C 323.018 112.800,322.864 112.980,323.000 113.200 C 323.136 113.420,322.877 113.600,322.424 113.600 C 321.944 113.600,321.600 113.861,321.600 114.224 C 321.600 114.567,321.433 114.744,321.229 114.618 C 321.025 114.492,320.747 114.737,320.612 115.162 C 320.477 115.588,319.744 116.616,318.983 117.446 C 318.222 118.277,317.600 119.112,317.600 119.302 C 317.600 119.492,317.420 119.536,317.200 119.400 C 316.980 119.264,316.800 119.523,316.800 119.976 C 316.800 120.429,316.620 120.800,316.400 120.800 C 316.180 120.800,316.000 121.160,316.000 121.600 C 316.000 122.040,315.865 122.401,315.700 122.403 C 315.341 122.407,314.400 124.344,314.400 125.080 C 314.400 125.366,314.220 125.600,314.000 125.600 C 313.780 125.600,313.600 126.039,313.600 126.576 C 313.600 127.113,313.420 127.664,313.200 127.800 C 312.980 127.936,312.800 128.667,312.800 129.424 C 312.800 130.181,312.665 130.805,312.500 130.811 C 312.335 130.816,309.410 130.879,306.000 130.949 C 299.242 131.088,297.859 131.280,295.304 132.434 C 294.372 132.855,293.337 133.200,293.004 133.200 C 292.672 133.200,292.400 133.380,292.400 133.600 C 292.400 133.820,292.040 134.000,291.600 134.000 C 291.160 134.000,290.800 134.180,290.800 134.400 C 290.800 134.620,290.545 134.800,290.233 134.800 C 289.922 134.800,289.607 134.967,289.533 135.170 C 289.460 135.374,289.130 135.599,288.800 135.670 C 288.470 135.742,287.930 136.082,287.600 136.428 C 287.270 136.773,286.685 137.172,286.300 137.315 C 285.915 137.458,285.600 137.771,285.600 138.011 C 285.600 138.251,285.433 138.344,285.229 138.218 C 285.025 138.092,284.743 138.351,284.602 138.794 C 284.461 139.237,284.088 139.600,283.773 139.600 C 283.458 139.600,283.200 139.887,283.200 140.237 C 283.200 140.588,282.862 140.963,282.450 141.071 C 282.037 141.179,281.452 141.747,281.150 142.334 C 280.847 142.920,280.375 143.638,280.100 143.929 C 279.825 144.219,279.600 144.610,279.600 144.798 C 279.600 144.985,279.137 145.689,278.571 146.361 C 278.006 147.033,277.649 147.756,277.780 147.967 C 277.910 148.178,277.700 148.528,277.312 148.745 C 276.924 148.962,276.739 149.272,276.900 149.433 C 277.061 149.594,276.978 149.986,276.715 150.302 C 276.452 150.619,276.187 151.210,276.125 151.616 C 276.063 152.021,275.742 153.129,275.412 154.077 C 275.069 155.062,274.809 157.214,274.806 159.100 L 274.800 162.400 277.100 162.408 C 278.365 162.412,280.840 162.688,282.600 163.020 C 284.360 163.352,286.479 163.733,287.310 163.866 C 288.140 163.999,288.916 164.264,289.033 164.454 C 289.151 164.644,289.599 164.800,290.029 164.800 C 290.459 164.800,291.123 164.959,291.505 165.153 C 291.887 165.348,292.650 165.686,293.200 165.904 C 295.306 166.742,299.806 169.010,299.933 169.298 C 300.007 169.464,300.240 169.600,300.451 169.600 C 301.459 169.600,306.984 173.880,310.322 177.246 C 317.079 184.060,320.576 190.163,323.471 200.196 C 323.852 201.515,324.840 201.908,326.153 201.262 C 328.928 199.897,348.189 199.888,349.032 201.252 C 349.150 201.443,349.629 201.600,350.095 201.600 C 350.899 201.600,352.712 202.094,354.700 202.855 C 356.995 203.734,357.526 203.958,359.400 204.834 C 360.500 205.348,362.152 206.271,363.072 206.884 C 363.992 207.498,364.857 208.000,364.996 208.000 C 365.364 208.000,368.330 210.323,370.400 212.234 C 371.993 213.705,374.369 214.921,373.777 213.963 C 373.654 213.763,373.839 213.600,374.189 213.600 C 374.539 213.600,374.928 213.331,375.055 213.002 C 375.181 212.673,376.345 211.302,377.642 209.956 C 378.939 208.610,380.000 207.342,380.000 207.138 C 380.000 206.764,380.411 206.192,381.700 204.771 C 382.085 204.347,382.400 203.856,382.400 203.680 C 382.400 203.100,383.394 201.206,383.700 201.203 C 383.865 201.201,384.000 200.840,384.000 200.400 C 384.000 199.960,384.180 199.600,384.400 199.600 C 384.620 199.600,384.800 199.240,384.800 198.800 C 384.800 198.360,384.980 198.000,385.200 198.000 C 385.420 198.000,385.600 197.370,385.600 196.600 C 385.600 195.830,385.750 195.200,385.933 195.200 C 386.117 195.200,386.279 194.975,386.293 194.700 C 386.308 194.425,386.689 192.772,387.140 191.027 C 388.007 187.676,388.384 173.685,387.620 173.212 C 387.432 173.095,387.227 172.280,387.165 171.400 C 387.102 170.520,386.905 169.602,386.726 169.360 C 386.547 169.117,386.361 168.442,386.313 167.860 C 386.265 167.277,386.085 166.800,385.913 166.800 C 385.741 166.800,385.600 166.551,385.600 166.246 C 385.600 165.941,385.339 165.189,385.020 164.574 C 384.702 163.960,384.532 163.309,384.644 163.129 C 384.756 162.948,384.657 162.800,384.424 162.800 C 384.191 162.800,384.000 162.440,384.000 162.000 C 384.000 161.560,383.854 161.200,383.675 161.200 C 383.496 161.200,383.102 160.570,382.800 159.800 C 382.498 159.030,382.104 158.400,381.925 158.400 C 381.746 158.400,381.600 158.128,381.600 157.796 C 381.600 157.464,381.060 156.628,380.400 155.937 C 379.740 155.246,379.200 154.525,379.200 154.333 C 379.200 154.142,378.014 152.799,376.564 151.349 C 374.022 148.807,373.938 148.660,374.232 147.256 C 374.399 146.455,374.525 145.395,374.510 144.900 C 374.496 144.405,374.654 144.000,374.861 144.000 C 375.722 144.000,374.908 128.561,374.018 128.011 C 373.796 127.874,373.689 127.377,373.779 126.907 C 373.870 126.436,373.689 125.840,373.376 125.580 C 373.064 125.321,372.920 124.930,373.056 124.710 C 373.191 124.490,373.087 124.178,372.825 124.015 C 372.562 123.853,372.307 123.468,372.258 123.160 C 372.121 122.299,370.089 119.005,369.196 118.197 C 368.758 117.800,368.400 117.326,368.400 117.143 C 368.400 116.777,367.305 115.362,366.471 114.651 C 366.181 114.403,365.596 113.885,365.171 113.500 C 364.747 113.115,364.254 112.800,364.075 112.800 C 363.896 112.800,363.240 112.269,362.618 111.619 C 361.996 110.969,361.377 110.474,361.243 110.518 C 361.109 110.562,360.280 110.162,359.400 109.628 C 358.520 109.094,357.444 108.595,357.009 108.517 C 356.573 108.440,356.042 108.202,355.829 107.989 C 355.615 107.775,355.116 107.600,354.720 107.600 C 354.324 107.600,354.000 107.457,354.000 107.282 C 354.000 107.107,353.325 106.919,352.500 106.864 C 351.675 106.810,350.945 106.608,350.878 106.415 C 350.697 105.900,336.400 105.870,336.400 106.385 M194.000 250.451 C 184.435 252.001,177.797 254.663,170.474 259.888 C 165.756 263.254,157.200 272.830,157.200 274.745 C 157.200 274.958,157.058 275.193,156.885 275.267 C 156.122 275.590,152.685 283.750,151.912 287.076 L 151.403 289.265 149.802 289.051 C 148.921 288.934,147.120 288.649,145.800 288.417 C 122.781 284.387,100.001 297.209,91.111 319.200 C 90.889 319.750,90.548 320.513,90.353 320.895 C 90.159 321.277,90.000 321.941,90.000 322.371 C 90.000 322.801,89.844 323.249,89.654 323.367 C 89.464 323.484,89.199 324.260,89.066 325.090 C 88.933 325.921,88.552 328.040,88.220 329.800 C 87.888 331.560,87.612 334.041,87.608 335.313 C 87.602 336.938,87.431 337.690,87.031 337.844 C 86.442 338.069,86.322 340.795,86.900 340.798 C 87.065 340.799,87.200 342.139,87.200 343.776 C 87.200 345.413,87.380 346.864,87.600 347.000 C 87.820 347.136,88.000 347.957,88.000 348.824 C 88.000 349.691,88.180 350.400,88.400 350.400 C 88.620 350.400,88.800 350.929,88.800 351.576 C 88.800 352.223,88.980 352.864,89.200 353.000 C 89.420 353.136,89.600 353.777,89.600 354.424 C 89.600 355.071,89.780 355.600,90.000 355.600 C 90.220 355.600,90.400 355.945,90.400 356.367 C 90.400 356.788,90.578 357.193,90.797 357.267 C 91.015 357.340,91.233 357.882,91.281 358.471 C 91.330 359.060,91.512 359.455,91.685 359.348 C 91.858 359.240,92.000 359.433,92.000 359.776 C 92.000 360.119,92.225 360.403,92.500 360.406 C 92.869 360.411,92.859 360.502,92.459 360.755 C 92.028 361.028,92.078 361.209,92.705 361.649 C 93.138 361.952,93.504 362.290,93.518 362.400 C 93.608 363.100,94.421 364.766,94.782 364.989 C 95.019 365.135,95.121 365.404,95.009 365.586 C 94.896 365.767,95.085 366.024,95.428 366.155 C 95.770 366.287,95.939 366.576,95.802 366.797 C 95.665 367.019,95.743 367.200,95.976 367.200 C 96.209 367.200,96.400 367.481,96.400 367.824 C 96.400 368.167,96.580 368.336,96.800 368.200 C 97.020 368.064,97.200 368.142,97.200 368.373 C 97.200 369.419,103.303 375.539,104.100 375.293 C 104.380 375.206,104.556 375.815,104.447 376.500 C 104.421 376.665,104.760 376.800,105.200 376.800 C 105.640 376.800,106.000 376.950,106.000 377.132 C 106.000 377.315,106.495 377.719,107.100 378.030 C 107.705 378.340,108.470 378.870,108.800 379.208 C 110.017 380.451,113.356 382.400,114.269 382.400 C 114.587 382.400,114.736 382.580,114.600 382.800 C 114.464 383.020,114.723 383.200,115.176 383.200 C 115.629 383.200,116.000 383.380,116.000 383.600 C 116.000 383.820,116.461 384.000,117.024 384.000 C 117.604 384.000,117.940 384.173,117.800 384.400 C 117.661 384.625,117.981 384.800,118.533 384.800 C 119.072 384.800,120.297 385.156,121.256 385.591 C 122.215 386.026,123.506 386.386,124.124 386.391 C 124.742 386.396,125.164 386.535,125.062 386.700 C 124.960 386.865,125.715 387.054,126.738 387.121 C 127.762 387.187,128.659 387.409,128.731 387.614 C 128.912 388.129,216.669 388.135,216.987 387.621 C 217.118 387.409,216.725 386.923,216.113 386.542 C 200.208 376.640,185.942 358.167,179.691 339.378 C 176.925 331.065,175.922 326.065,175.206 317.011 C 174.598 309.328,175.985 296.789,178.235 289.619 C 178.549 288.619,178.997 287.170,179.230 286.400 C 179.462 285.630,179.804 284.640,179.989 284.200 C 180.174 283.760,180.627 282.590,180.996 281.600 C 184.741 271.537,192.420 259.590,199.737 252.440 L 201.947 250.280 204.874 250.504 C 206.602 250.636,207.472 250.590,207.000 250.392 C 205.953 249.953,196.821 249.994,194.000 250.451 M208.033 250.944 C 208.125 251.024,209.010 251.206,210.000 251.350 C 211.258 251.533,211.619 251.491,211.200 251.212 C 210.660 250.853,207.632 250.597,208.033 250.944 M215.382 252.800 C 217.353 253.442,219.048 253.886,219.149 253.784 C 219.250 253.683,219.240 253.600,219.125 253.600 C 219.011 253.600,217.677 253.150,216.160 252.600 C 214.644 252.050,213.043 251.607,212.602 251.615 C 212.161 251.624,213.412 252.157,215.382 252.800 M224.000 256.367 C 224.963 257.152,225.600 257.408,225.600 257.010 C 225.600 256.906,225.015 256.535,224.300 256.186 L 223.000 255.552 224.000 256.367 M227.200 258.386 C 227.200 258.614,227.425 258.803,227.700 258.807 C 229.277 258.830,241.170 270.723,241.193 272.300 C 241.197 272.575,241.352 272.800,241.537 272.800 C 241.723 272.800,242.296 273.620,242.812 274.622 C 243.327 275.625,243.921 276.551,244.131 276.681 C 244.808 277.099,242.443 273.083,240.433 270.399 C 236.413 265.032,227.200 256.668,227.200 258.386 M246.812 283.200 C 246.812 283.530,246.987 284.070,247.200 284.400 C 247.545 284.933,247.588 284.933,247.588 284.400 C 247.588 284.070,247.413 283.530,247.200 283.200 C 246.855 282.667,246.812 282.667,246.812 283.200 M247.606 285.323 C 247.583 286.557,248.585 289.200,249.076 289.200 C 249.564 289.200,249.556 289.099,249.029 288.571 C 248.683 288.226,248.397 287.551,248.394 287.071 C 248.388 286.278,247.620 284.573,247.606 285.323 M254.600 288.021 C 254.072 288.262,254.616 288.304,256.200 288.143 C 257.520 288.009,258.675 287.832,258.767 287.750 C 259.121 287.431,255.356 287.676,254.600 288.021 M269.200 288.229 C 270.850 288.564,272.876 288.939,273.703 289.061 C 274.529 289.184,275.305 289.445,275.426 289.642 C 275.548 289.839,276.166 290.000,276.800 290.000 C 277.434 290.000,278.064 290.180,278.200 290.400 C 278.336 290.620,278.780 290.800,279.186 290.800 C 279.592 290.800,280.706 291.186,281.662 291.657 C 282.618 292.128,283.850 292.713,284.400 292.957 C 286.363 293.827,291.683 297.222,293.551 298.797 C 294.596 299.679,295.800 300.387,296.226 300.372 C 296.843 300.349,296.875 300.289,296.384 300.072 C 295.789 299.809,292.808 297.642,292.400 297.176 C 291.939 296.649,288.424 294.400,288.061 294.400 C 287.844 294.400,287.607 294.265,287.533 294.100 C 287.341 293.668,284.028 292.000,283.362 292.000 C 283.053 292.000,282.800 291.820,282.800 291.600 C 282.800 291.380,282.476 291.200,282.080 291.200 C 281.684 291.200,281.189 291.051,280.980 290.870 C 280.771 290.688,279.790 290.307,278.800 290.024 C 277.810 289.741,276.640 289.373,276.200 289.208 C 274.468 288.556,271.285 287.944,268.805 287.786 L 266.200 287.619 269.200 288.229 M250.600 288.800 L 249.800 289.144 250.600 289.144 C 251.040 289.144,251.760 288.989,252.200 288.800 L 253.000 288.456 252.200 288.456 C 251.760 288.456,251.040 288.611,250.600 288.800 M297.200 300.533 C 297.200 300.941,299.278 302.856,299.490 302.643 C 299.697 302.437,299.190 301.866,297.898 300.851 C 297.514 300.549,297.200 300.406,297.200 300.533 M301.083 304.788 C 301.454 305.221,301.838 305.496,301.936 305.398 C 302.174 305.159,301.195 304.000,300.755 304.000 C 300.564 304.000,300.711 304.355,301.083 304.788 M303.800 308.400 C 304.604 309.288,305.156 309.511,304.452 308.663 C 304.207 308.368,304.125 308.008,304.270 307.863 C 304.415 307.718,304.205 307.600,303.805 307.600 C 303.101 307.600,303.101 307.628,303.800 308.400 M307.201 313.929 C 307.200 314.439,307.479 315.136,307.819 315.476 C 308.710 316.367,308.744 316.004,307.920 314.400 C 307.303 313.199,307.201 313.132,307.201 313.929 M310.400 322.400 C 310.400 322.840,310.580 323.200,310.800 323.200 C 311.020 323.200,311.200 322.840,311.200 322.400 C 311.200 321.960,311.020 321.600,310.800 321.600 C 310.580 321.600,310.400 321.960,310.400 322.400 M311.393 324.810 C 311.473 325.897,312.000 326.314,312.000 325.290 C 312.000 324.827,311.851 324.355,311.668 324.242 C 311.486 324.129,311.362 324.385,311.393 324.810 M312.000 328.576 C 312.000 329.139,312.180 329.600,312.400 329.600 C 312.620 329.600,312.800 329.251,312.800 328.824 C 312.800 328.397,312.620 327.936,312.400 327.800 C 312.173 327.660,312.000 327.996,312.000 328.576 M312.806 336.900 C 312.809 338.275,312.996 339.670,313.220 340.000 C 313.509 340.426,313.594 339.701,313.514 337.500 C 313.378 333.808,312.797 333.315,312.806 336.900 M312.000 346.224 C 312.000 346.804,312.173 347.140,312.400 347.000 C 312.620 346.864,312.800 346.403,312.800 345.976 C 312.800 345.549,312.620 345.200,312.400 345.200 C 312.180 345.200,312.000 345.661,312.000 346.224 M311.200 349.600 C 311.200 350.040,311.380 350.400,311.600 350.400 C 311.820 350.400,312.000 350.040,312.000 349.600 C 312.000 349.160,311.820 348.800,311.600 348.800 C 311.380 348.800,311.200 349.160,311.200 349.600 M306.444 362.264 C 305.826 363.620,306.023 363.759,306.901 362.585 C 307.286 362.070,307.447 361.553,307.259 361.437 C 307.071 361.320,306.704 361.693,306.444 362.264 M305.188 364.416 C 304.865 364.620,304.780 364.793,305.000 364.800 C 305.220 364.807,305.130 364.987,304.800 365.200 C 304.470 365.413,304.403 365.591,304.651 365.594 C 305.155 365.601,306.209 364.475,305.945 364.212 C 305.853 364.119,305.512 364.211,305.188 364.416 M303.400 366.800 C 303.264 367.020,303.260 367.200,303.392 367.200 C 303.524 367.200,303.266 367.592,302.820 368.071 C 302.374 368.550,302.087 369.021,302.184 369.117 C 302.387 369.320,304.369 367.147,304.387 366.700 C 304.406 366.261,303.688 366.334,303.400 366.800 M296.928 374.188 C 296.228 374.922,295.755 375.622,295.877 375.744 C 296.088 375.954,298.800 373.401,298.800 372.993 C 298.800 372.513,298.099 372.961,296.928 374.188 " stroke="none" fill="#94ecfc" fill-rule="evenodd"></path><path id="path4" d="M117.600 200.465 C 111.252 201.565,102.752 204.671,99.233 207.177 C 98.597 207.629,97.776 208.000,97.409 208.000 C 96.457 208.000,93.576 209.764,92.226 211.172 C 91.595 211.832,90.925 212.277,90.739 212.162 C 90.552 212.047,90.400 212.128,90.400 212.343 C 90.400 212.557,89.680 213.415,88.800 214.249 C 87.920 215.083,87.200 215.905,87.200 216.075 C 87.200 216.246,86.396 217.225,85.413 218.251 C 84.429 219.277,83.700 220.238,83.791 220.386 C 83.882 220.533,83.607 220.907,83.179 221.215 C 82.750 221.524,82.400 222.007,82.400 222.288 C 82.400 222.570,82.254 222.800,82.075 222.800 C 81.896 222.800,81.502 223.430,81.200 224.200 C 80.898 224.970,80.504 225.600,80.325 225.600 C 80.146 225.600,80.000 225.960,80.000 226.400 C 80.000 226.840,79.820 227.200,79.600 227.200 C 79.380 227.200,79.200 227.470,79.200 227.800 C 79.200 228.130,79.063 228.400,78.896 228.400 C 78.729 228.400,78.146 229.840,77.600 231.600 C 77.054 233.360,76.448 234.800,76.254 234.800 C 76.059 234.800,76.008 235.340,76.140 236.000 C 76.275 236.677,76.210 237.200,75.990 237.200 C 75.776 237.200,75.597 237.605,75.594 238.100 C 75.591 238.595,75.456 238.813,75.294 238.585 C 75.132 238.357,74.280 238.116,73.400 238.048 C 72.520 237.981,71.594 237.756,71.343 237.550 C 70.748 237.060,53.288 237.135,52.983 237.628 C 52.856 237.833,52.043 238.000,51.176 238.000 C 50.309 238.000,49.600 238.180,49.600 238.400 C 49.600 238.620,48.869 238.800,47.976 238.800 C 46.996 238.800,46.451 238.958,46.600 239.200 C 46.744 239.433,46.337 239.600,45.624 239.600 C 44.951 239.600,44.400 239.780,44.400 240.000 C 44.400 240.220,43.939 240.400,43.376 240.400 C 42.796 240.400,42.460 240.573,42.600 240.800 C 42.736 241.020,42.477 241.200,42.024 241.200 C 41.571 241.200,41.200 241.380,41.200 241.600 C 41.200 241.820,40.774 242.000,40.254 242.000 C 39.734 242.000,38.879 242.322,38.354 242.716 C 37.829 243.110,36.872 243.661,36.226 243.941 C 35.580 244.221,34.365 244.994,33.526 245.659 C 32.687 246.323,32.000 246.761,32.000 246.630 C 32.000 246.500,31.433 246.935,30.741 247.597 C 30.048 248.258,29.268 248.800,29.008 248.800 C 28.748 248.800,28.298 249.244,28.007 249.786 C 27.717 250.329,27.372 250.708,27.240 250.628 C 27.108 250.549,26.768 250.735,26.484 251.042 C 26.201 251.349,26.080 251.600,26.217 251.600 C 26.353 251.600,25.731 252.306,24.833 253.169 C 23.935 254.031,23.200 254.949,23.200 255.208 C 23.200 255.467,22.660 256.183,22.000 256.800 C 21.340 257.417,20.800 258.119,20.800 258.360 C 20.800 258.602,20.620 258.800,20.400 258.800 C 20.180 258.800,20.000 259.070,20.000 259.400 C 20.000 259.730,19.820 260.000,19.600 260.000 C 19.380 260.000,19.200 260.270,19.200 260.600 C 19.200 260.930,19.020 261.200,18.800 261.200 C 18.580 261.200,18.400 261.545,18.400 261.967 C 18.400 262.388,18.265 262.793,18.100 262.867 C 17.668 263.059,16.000 266.372,16.000 267.038 C 16.000 267.347,15.820 267.600,15.600 267.600 C 15.380 267.600,15.200 267.949,15.200 268.376 C 15.200 268.803,15.020 269.264,14.800 269.400 C 14.580 269.536,14.400 270.087,14.400 270.624 C 14.400 271.161,14.220 271.600,14.000 271.600 C 13.780 271.600,13.600 272.230,13.600 273.000 C 13.600 273.770,13.420 274.400,13.200 274.400 C 12.980 274.400,12.800 275.210,12.800 276.200 C 12.800 277.190,12.620 278.000,12.400 278.000 C 12.165 278.000,12.000 279.392,12.000 281.376 C 12.000 283.350,11.822 284.863,11.571 285.018 C 11.105 285.306,11.166 289.926,11.645 290.600 C 11.801 290.820,12.018 292.260,12.127 293.800 C 12.352 296.971,12.697 299.031,13.197 300.200 C 13.517 300.946,13.715 301.740,14.270 304.500 C 14.391 305.105,14.650 305.600,14.845 305.600 C 15.040 305.600,15.200 305.945,15.200 306.367 C 15.200 306.788,15.378 307.193,15.597 307.267 C 15.815 307.340,16.034 307.895,16.084 308.500 C 16.134 309.105,16.315 309.600,16.487 309.600 C 16.659 309.600,16.800 309.870,16.800 310.200 C 16.800 310.530,16.946 310.800,17.125 310.800 C 17.304 310.800,17.698 311.430,18.000 312.200 C 18.302 312.970,18.696 313.600,18.875 313.600 C 19.054 313.600,19.200 313.971,19.200 314.424 C 19.200 314.877,19.380 315.136,19.600 315.000 C 19.820 314.864,20.000 315.033,20.000 315.376 C 20.000 315.719,20.180 316.000,20.400 316.000 C 20.620 316.000,20.800 316.288,20.800 316.640 C 20.800 316.991,21.340 317.783,22.000 318.400 C 22.660 319.017,23.200 319.839,23.200 320.227 C 23.200 320.616,23.304 320.830,23.430 320.703 C 23.557 320.577,24.592 321.514,25.730 322.786 C 26.869 324.058,28.199 325.329,28.686 325.610 C 29.174 325.891,29.478 326.273,29.363 326.460 C 29.247 326.647,29.435 326.800,29.780 326.800 C 30.125 326.800,30.972 327.340,31.663 328.000 C 32.354 328.660,33.079 329.200,33.276 329.200 C 33.473 329.200,34.020 329.560,34.492 330.000 C 34.964 330.440,35.587 330.800,35.875 330.800 C 36.164 330.800,36.400 330.980,36.400 331.200 C 36.400 331.420,36.683 331.600,37.029 331.600 C 37.374 331.600,37.929 331.872,38.261 332.204 C 38.593 332.536,39.030 332.705,39.232 332.580 C 39.435 332.455,39.600 332.543,39.600 332.776 C 39.600 333.009,39.960 333.200,40.400 333.200 C 40.840 333.200,41.200 333.380,41.200 333.600 C 41.200 333.820,41.560 334.000,42.000 334.000 C 42.440 334.000,42.800 334.180,42.800 334.400 C 42.800 334.620,43.261 334.800,43.824 334.800 C 44.387 334.800,44.760 334.942,44.652 335.115 C 44.545 335.288,44.932 335.470,45.511 335.517 C 46.091 335.565,46.744 335.784,46.962 336.002 C 47.181 336.221,47.853 336.400,48.456 336.400 C 49.059 336.400,49.664 336.580,49.800 336.800 C 49.936 337.020,50.847 337.200,51.824 337.200 C 52.801 337.200,53.600 337.382,53.600 337.604 C 53.600 337.872,59.244 337.973,70.300 337.904 L 87.000 337.800 87.292 334.200 C 89.165 311.100,105.009 293.097,127.800 288.169 C 132.200 287.218,142.626 287.196,146.800 288.129 C 150.836 289.031,151.140 289.003,151.428 287.700 C 152.460 283.025,155.393 276.428,158.421 271.968 C 160.299 269.204,160.719 268.671,162.921 266.263 C 164.637 264.387,164.650 264.193,163.422 258.600 C 161.340 249.113,164.178 232.490,169.033 225.730 C 169.615 224.920,169.606 224.873,168.910 225.055 C 168.385 225.193,167.990 224.916,167.581 224.125 C 163.339 215.910,151.944 206.712,141.400 202.990 C 134.885 200.691,123.356 199.467,117.600 200.465 M209.305 200.287 C 209.914 200.379,210.814 200.377,211.305 200.282 C 211.797 200.187,211.300 200.111,210.200 200.114 C 209.100 200.117,208.697 200.195,209.305 200.287 M214.500 200.276 C 214.885 200.376,215.515 200.376,215.900 200.276 C 216.285 200.175,215.970 200.093,215.200 200.093 C 214.430 200.093,214.115 200.175,214.500 200.276 M176.975 214.900 L 175.800 216.200 177.100 215.025 C 178.312 213.930,178.584 213.600,178.275 213.600 C 178.206 213.600,177.621 214.185,176.975 214.900 " stroke="none" fill="#4cb4dc" fill-rule="evenodd"></path></g></svg>